<?xml version="1.0" encoding="utf-8"?>
<!-- Generator: Adobe Illustrator 25.3.1, SVG Export Plug-In . SVG Version: 6.00 Build 0)  -->
<svg version="1.0" id="Слой_1" xmlns="http://www.w3.org/2000/svg" xmlns:xlink="http://www.w3.org/1999/xlink" x="0px" y="0px"
	 viewBox="0 0 9430.83 3508.49" style="enable-background:new 0 0 9430.83 3508.49;" xml:space="preserve">
<style type="text/css">
	.st0{fill:#0598D9;}
	.st1{fill:#5e5e5e;}
	.st2{fill:#FDF015;}
	.st3{fill:#FFFFFF;}
</style>
<g>
	<path class="st0" d="M5976.74,3035.5c-20.23,0-429.82,0.68-608.23,0c99.47-266.77,198.93-525.71,301.89-801.84
		c37.45,98.59,71.42,187.34,104.89,276.28C5839.05,2677.7,5967.85,3017.14,5976.74,3035.5z"/>
	<g>
		<path class="st1" d="M1129.84,3035.5c0,0,126.6-361.22,181.63-525.52c4.94-14.76,12.04-38.2,12.04-38.2l716.9,0.08l-31.36,563.63
			h1624.89c0,0-6.49-994.79-9.31-1468.97c-0.08-13.78-0.52-40.3-0.85-55.81c56.05,97.4,120,207.46,175.89,304.96
			C4028.58,2215,4504.34,3035.5,4504.34,3035.5s583.16,0.42,864.17,0c99.46-266.76,198.93-525.71,301.88-801.84
			c37.45,98.59,71.42,187.34,104.89,276.28c63.36,168.38,192.58,507.19,201.46,525.56c150.34,0.84,575.35,0,575.35,0V1192.36
			L6950.2,3035.5h918.66c0,0,462.89-1816.81,472.65-1843.15c0,65.41,0,1843.15,0,1843.15h1089.34V0.86H7861.6
			c0,0-359.8,1515.48-366.25,1528.74C7467.51,1428.82,7072.2,0.86,7072.2,0.86H4789.97l0,1574.27L3920.2,0.86
			c0,0-491.41,0.31-718.33,0c-10.81,26.83-159.44,387.62-223.8,543.18c-34.65,83.77-68.07,168.05-107.09,264.6
			c-120.29-276.35-235.94-542.06-351.6-807.78c-302.04-1.94-988.55,0-988.55,0s-25.07,40.55-37.83,66.08
			C1011.21,1030.73,526.83,1993.22,42.98,2955.98c-6.32,12.57-29.98,56.55-42.98,79.53H1129.84z M2051.05,897.27
			c-0.87,12.65,0,685.86,0,685.86s-255.4,0-370.15,0C1802.65,1356.13,1930.5,1122.05,2051.05,897.27z"/>
	</g>
	<polygon class="st2" points="2519.39,0.86 3201.88,0.86 2870.99,808.64 	"/>
</g>
<g>
	<path class="st3" d="M418.54,3431.3H263.7l-29.54,71.47h-79.09l148.65-333.5h76.23l149.12,333.5h-80.99L418.54,3431.3z
		 M394.24,3372.71l-52.88-127.68l-52.88,127.68H394.24z"/>
	<path class="st3" d="M904.97,3232.17H798.25v-62.89h290.62v62.89H982.15v270.6h-77.18V3232.17z"/>
	<path class="st3" d="M1572.92,3384.62v118.15h-77.18v-119.1l-129.11-214.39h81.95l89.09,148.17l89.09-148.17h75.75L1572.92,3384.62
		z"/>
	<path class="st3" d="M2232.77,3502.77l-64.32-92.91h-3.81h-67.18v92.91h-77.18v-333.5h144.36c29.54,0,55.18,4.93,76.94,14.77
		c21.75,9.85,38.51,23.82,50.26,41.93c11.74,18.1,17.63,39.55,17.63,64.32c0,24.77-5.96,46.14-17.87,64.08
		c-11.91,17.95-28.82,31.68-50.74,41.21l74.8,107.19H2232.77z M2213.24,3247.17c-12.07-10.01-29.7-15.01-52.88-15.01h-62.89v116.24
		h62.89c23.18,0,40.81-5.08,52.88-15.24c12.07-10.16,18.1-24.46,18.1-42.88C2231.34,3271.55,2225.3,3257.17,2213.24,3247.17z"/>
	<path class="st3" d="M2878.79,3431.3h-154.84l-29.54,71.47h-79.09l148.65-333.5h76.23l149.12,333.5h-80.99L2878.79,3431.3z
		 M2854.49,3372.71l-52.88-127.68l-52.88,127.68H2854.49z"/>
	<path class="st3" d="M3342.59,3468.94c-26.52-26.35-39.78-63.99-39.78-112.91v-186.75h77.18v183.9c0,59.72,24.77,89.57,74.32,89.57
		c24.14,0,42.56-7.22,55.26-21.68c12.7-14.45,19.06-37.08,19.06-67.89v-183.9h76.23v186.75c0,48.92-13.27,86.56-39.78,112.91
		c-26.52,26.37-63.6,39.55-111.24,39.55C3406.19,3508.49,3369.1,3495.31,3342.59,3468.94z"/>
	<path class="st3" d="M4275.67,3169.28v333.5h-63.37l-166.27-202.48v202.48h-76.23v-333.5h63.84l165.8,202.48v-202.48H4275.67z"/>
	<path class="st3" d="M4901.68,3440.84v61.93h-258.22v-333.5h252.03v61.93h-175.32v72.42H4875v60.03h-154.84v77.19H4901.68z"/>
	<path class="st3" d="M5329.03,3231.21v88.14h154.36v61.94h-154.36v121.49h-77.19v-333.5h252.03v61.93H5329.03z"/>
	<path class="st3" d="M5916.45,3232.17h-106.72v-62.89h290.62v62.89h-106.72v270.6h-77.18V3232.17z"/>
	<path class="st3" d="M6688.73,3440.84v61.93h-258.22v-333.5h252.03v61.93h-175.32v72.42h154.84v60.03h-154.84v77.19H6688.73z"/>
	<path class="st3" d="M7342.38,3502.77l-0.47-200.1l-98.15,164.84h-34.78l-97.67-160.56v195.81h-72.42v-333.5h63.84l124.82,207.24
		l122.92-207.24h63.36l0.95,333.5H7342.38z"/>
	<path class="st3" d="M8002.22,3431.3h-154.84l-29.54,71.47h-79.08l148.65-333.5h76.23l149.12,333.5h-80.99L8002.22,3431.3z
		 M7977.92,3372.71l-52.88-127.68l-52.88,127.68H7977.92z"/>
	<path class="st3" d="M8469.34,3497.77c-24.61-7.15-44.39-16.44-59.31-27.87l26.2-58.12c14.29,10.48,31.28,18.9,50.98,25.25
		c19.69,6.36,39.38,9.53,59.08,9.53c21.92,0,38.12-3.25,48.6-9.77c10.48-6.5,15.72-15.16,15.72-25.97c0-7.93-3.1-14.53-9.29-19.77
		c-6.19-5.24-14.14-9.45-23.82-12.62c-9.69-3.17-22.79-6.67-39.31-10.49c-25.41-6.03-46.21-12.07-62.41-18.1
		c-16.19-6.03-30.09-15.72-41.68-29.06c-11.59-13.34-17.39-31.12-17.39-53.36c0-19.37,5.25-36.93,15.73-52.64
		c10.48-15.73,26.28-28.19,47.4-37.41c21.11-9.2,46.92-13.82,77.42-13.82c21.28,0,42.08,2.55,62.41,7.62
		c20.32,5.08,38.11,12.39,53.36,21.92l-23.82,58.6c-30.81-17.46-61.62-26.2-92.43-26.2c-21.6,0-37.56,3.5-47.88,10.48
		c-10.33,6.99-15.49,16.2-15.49,27.63c0,11.44,5.96,19.94,17.87,25.49c11.9,5.56,30.08,11.04,54.55,16.43
		c25.41,6.04,46.21,12.07,62.41,18.1c16.2,6.04,30.09,15.57,41.69,28.59c11.59,13.03,17.39,30.66,17.39,52.88
		c0,19.05-5.32,36.45-15.96,52.16c-10.65,15.73-26.61,28.2-47.88,37.41c-21.28,9.2-47.16,13.82-77.66,13.82
		C8519.45,3508.49,8493.96,3504.92,8469.34,3497.77z"/>
	<path class="st3" d="M9334.77,3169.28v333.5h-77.18v-136.73h-151.5v136.73h-77.19v-333.5h77.19v131.49h151.5v-131.49H9334.77z"/>
</g>
</svg>
