<svg width="310" height="168" viewBox="0 0 310 168" fill="none" xmlns="http://www.w3.org/2000/svg">
<g clip-path="url(#clip0_385_427)">
<path d="M80.2142 6.36877H71.916V7.8127H80.2142V6.36877Z" stroke="#434343" stroke-miterlimit="10"/>
<path d="M81.8005 7.80969H70.3349V9.25362H81.8005V7.80969Z" stroke="#434343" stroke-miterlimit="10"/>
<path d="M80.2142 9.25354H71.916V14.0761H80.2142V9.25354Z" stroke="#434343" stroke-miterlimit="10"/>
<path d="M80.2142 14.0751H71.916V15.6064H80.2142V14.0751Z" stroke="#434343" stroke-miterlimit="10"/>
<path d="M82.8406 15.6036H69.2946V17.1349H82.8406V15.6036Z" stroke="#434343" stroke-miterlimit="10"/>
<path d="M82.8406 17.1346H69.2946V18.6659H82.8406V17.1346Z" stroke="#434343" stroke-miterlimit="10"/>
<path d="M82.8406 18.6656H69.2946V25.3548H82.8406V18.6656Z" stroke="#434343" stroke-miterlimit="10"/>
<path d="M82.8406 25.3546H69.2946V26.9064H82.8406V25.3546Z" stroke="#434343" stroke-miterlimit="10"/>
<path d="M104.186 26.9064H42.8035V28.9618H104.186V26.9064Z" stroke="#434343" stroke-miterlimit="10"/>
<path d="M182.72 81.9686H94.8185V84.4608H182.72V81.9686Z" stroke="#434343" stroke-miterlimit="10"/>
<path d="M52.7034 81.9686H15.1809V84.4608H52.7034V81.9686Z" stroke="#434343" stroke-miterlimit="10"/>
<path d="M274.167 161.512H15.1809V164.004H274.167V161.512Z" stroke="#434343" stroke-miterlimit="10"/>
<path d="M52.7036 28.9613H42.8035V31.0167H52.7036V28.9613Z" stroke="#434343" stroke-miterlimit="10"/>
<path d="M104.186 28.9613H94.8185V31.0167H104.186V28.9613Z" stroke="#434343" stroke-miterlimit="10"/>
<path d="M67.7473 25.8788H61.4385V26.9065H67.7473V25.8788Z" stroke="#434343" stroke-miterlimit="10"/>
<path d="M66.2186 28.9869H62.9547V30.0146H66.2186V28.9869Z" stroke="#434343" stroke-miterlimit="10"/>
<path d="M67.1519 30.4769H62.0185V32.0288H67.1519V30.4769Z" stroke="#434343" stroke-miterlimit="10"/>
<path d="M65.9403 24.6019H63.2304V26.9091H65.9403V24.6019Z" stroke="#434343" stroke-miterlimit="10"/>
<path d="M76.0664 0.368042V17.1347" stroke="#434343" stroke-miterlimit="10"/>
<path d="M76.0664 20.962V23.5853" stroke="#434343" stroke-miterlimit="10"/>
<path d="M64.5904 21.5194V34.7565" stroke="#434343" stroke-miterlimit="10"/>
<path d="M76.0664 26.6827V41.5227" stroke="#434343" stroke-miterlimit="10"/>
<path d="M64.5904 37.9625V40.5164" stroke="#434343" stroke-miterlimit="10"/>
<path d="M62.5724 32.0284V146.297C62.5724 146.297 64.7647 149.986 66.8893 150.543H68.5172" stroke="#434343" stroke-miterlimit="10"/>
<path d="M66.715 32.0284V145.77C66.715 145.77 67.4016 146.692 67.9165 147.003H68.5641" stroke="#434343" stroke-miterlimit="10"/>
<path d="M72.4802 28.9613V144.948" stroke="#434343" stroke-miterlimit="10"/>
<path d="M79.741 28.9613V144.948" stroke="#434343" stroke-miterlimit="10"/>
<path d="M64.5904 43.6036V57.4444" stroke="#434343" stroke-miterlimit="10"/>
<path d="M64.5904 60.0773V62.6311" stroke="#434343" stroke-miterlimit="10"/>
<path d="M64.5904 65.7157V79.5564" stroke="#434343" stroke-miterlimit="10"/>
<path d="M64.5904 82.1407V84.6946" stroke="#434343" stroke-miterlimit="10"/>
<path d="M64.5904 87.7819V101.623" stroke="#434343" stroke-miterlimit="10"/>
<path d="M64.5904 104.225V106.779" stroke="#434343" stroke-miterlimit="10"/>
<path d="M64.5904 109.866V123.704" stroke="#434343" stroke-miterlimit="10"/>
<path d="M64.5904 126.288V128.842" stroke="#434343" stroke-miterlimit="10"/>
<path d="M76.0664 44.6747V47.3853" stroke="#434343" stroke-miterlimit="10"/>
<path d="M76.0664 50.6627V65.3512" stroke="#434343" stroke-miterlimit="10"/>
<path d="M76.0586 68.3156V70.8591" stroke="#434343" stroke-miterlimit="10"/>
<path d="M76.0664 73.4301V88.8249" stroke="#434343" stroke-miterlimit="10"/>
<path d="M76.0664 91.4039V94.1145" stroke="#434343" stroke-miterlimit="10"/>
<path d="M76.0664 97.0604V111.913" stroke="#434343" stroke-miterlimit="10"/>
<path d="M76.0664 115.006V117.604" stroke="#434343" stroke-miterlimit="10"/>
<path d="M76.0664 120.683V135.523" stroke="#434343" stroke-miterlimit="10"/>
<path d="M76.0664 144.321V159.164" stroke="#434343" stroke-miterlimit="10"/>
<path d="M76.0664 138.706V141.165" stroke="#434343" stroke-miterlimit="10"/>
<path d="M64.5904 131.929V146.132C64.5904 146.132 66.1403 148.198 66.9854 148.624H68.5613" stroke="#434343" stroke-miterlimit="10"/>
<path d="M44.5952 28.9617L46.6497 26.932" stroke="#434343" stroke-miterlimit="10"/>
<path d="M48.652 28.9617L50.7065 26.932" stroke="#434343" stroke-miterlimit="10"/>
<path d="M50.7065 31.0065L48.652 28.9742" stroke="#434343" stroke-miterlimit="10"/>
<path d="M46.6497 31.0065L44.5952 28.9742" stroke="#434343" stroke-miterlimit="10"/>
<path d="M52.7062 28.9617L54.7633 26.932" stroke="#434343" stroke-miterlimit="10"/>
<path d="M52.7062 34.3176L54.7633 32.2853" stroke="#434343" stroke-miterlimit="10"/>
<path d="M52.7062 39.6711L54.7633 37.6388" stroke="#434343" stroke-miterlimit="10"/>
<path d="M52.7062 45.0244L54.7633 42.9921" stroke="#434343" stroke-miterlimit="10"/>
<path d="M52.7062 61.0847L54.7633 59.0524" stroke="#434343" stroke-miterlimit="10"/>
<path d="M52.7062 66.4379L54.7633 64.4056" stroke="#434343" stroke-miterlimit="10"/>
<path d="M52.7062 71.7914L54.7633 69.7592" stroke="#434343" stroke-miterlimit="10"/>
<path d="M52.7062 77.1447L54.7633 75.1124" stroke="#434343" stroke-miterlimit="10"/>
<path d="M52.7062 82.4982L54.7633 80.4659" stroke="#434343" stroke-miterlimit="10"/>
<path d="M56.763 28.9617L58.8176 26.932" stroke="#434343" stroke-miterlimit="10"/>
<path d="M60.817 28.9617L62.8741 26.932" stroke="#434343" stroke-miterlimit="10"/>
<path d="M64.8738 28.9617L66.9283 26.932" stroke="#434343" stroke-miterlimit="10"/>
<path d="M68.928 28.9617L70.9851 26.932" stroke="#434343" stroke-miterlimit="10"/>
<path d="M72.9848 28.9617L75.0394 26.932" stroke="#434343" stroke-miterlimit="10"/>
<path d="M77.0414 28.9617L79.096 26.932" stroke="#434343" stroke-miterlimit="10"/>
<path d="M81.0956 28.9617L83.1528 26.932" stroke="#434343" stroke-miterlimit="10"/>
<path d="M85.1525 28.9617L87.207 26.932" stroke="#434343" stroke-miterlimit="10"/>
<path d="M89.2066 28.9617L91.2638 26.932" stroke="#434343" stroke-miterlimit="10"/>
<path d="M93.2635 28.9617L95.318 26.932" stroke="#434343" stroke-miterlimit="10"/>
<path d="M97.3177 28.9617L99.3748 26.932" stroke="#434343" stroke-miterlimit="10"/>
<path d="M101.375 28.9617L103.429 26.932" stroke="#434343" stroke-miterlimit="10"/>
<path d="M97.3177 28.9742L99.3748 31.0065" stroke="#434343" stroke-miterlimit="10"/>
<path d="M101.375 28.9742L103.429 31.0065" stroke="#434343" stroke-miterlimit="10"/>
<path d="M54.771 28.9869H52.7035V49.4912H54.771V28.9869Z" stroke="#434343" stroke-miterlimit="10"/>
<path d="M92.7564 32.2833L94.811 30.2535" stroke="#434343" stroke-miterlimit="10"/>
<path d="M92.7564 37.6392L94.811 35.6095" stroke="#434343" stroke-miterlimit="10"/>
<path d="M92.7564 42.9952L94.811 40.9655" stroke="#434343" stroke-miterlimit="10"/>
<path d="M92.7564 48.351L94.811 46.3187" stroke="#434343" stroke-miterlimit="10"/>
<path d="M92.7564 53.707L94.811 51.6747" stroke="#434343" stroke-miterlimit="10"/>
<path d="M92.7564 59.0604L94.811 57.0306" stroke="#434343" stroke-miterlimit="10"/>
<path d="M92.7564 69.7723L94.811 67.7426" stroke="#434343" stroke-miterlimit="10"/>
<path d="M92.7564 75.1282L94.811 73.0985" stroke="#434343" stroke-miterlimit="10"/>
<path d="M92.7564 80.4843L94.811 78.452" stroke="#434343" stroke-miterlimit="10"/>
<path d="M94.8213 28.9869H92.7538V84.4603H94.8213V28.9869Z" stroke="#434343" stroke-miterlimit="10"/>
<path d="M54.771 59.2784H52.7035V84.4168H54.771V59.2784Z" stroke="#434343" stroke-miterlimit="10"/>
<path d="M52.7035 63.8766H62.5724" stroke="#434343" stroke-miterlimit="10"/>
<path d="M66.9127 63.8766H72.4804" stroke="#434343" stroke-miterlimit="10"/>
<path d="M79.6758 63.8766H94.8185" stroke="#434343" stroke-miterlimit="10"/>
<path d="M54.7709 84.4166C54.7709 84.4166 60.4764 86.0019 62.5724 86.2203V87.5537C62.5724 87.5537 57.582 86.6801 52.7035 84.4166H54.7709Z" stroke="#434343" stroke-miterlimit="10" stroke-linejoin="bevel"/>
<path d="M66.715 86.7672C66.715 86.7672 68.8942 87.2708 72.4803 87.3581V88.5606C72.4803 88.5606 68.5848 88.6916 66.715 87.926V86.7672Z" stroke="#434343" stroke-miterlimit="10"/>
<path d="M79.741 87.0503C79.741 87.0503 86.8429 86.4388 92.7538 84.4579H94.8212C94.8212 84.4579 91.1623 86.9526 79.7436 88.1216V87.0503H79.741Z" stroke="#434343" stroke-miterlimit="10" stroke-linecap="square" stroke-linejoin="round"/>
<path d="M54.771 49.4913H43.8645V59.2785H54.771V49.4913Z" stroke="#434343" stroke-miterlimit="10" stroke-linecap="square"/>
<path d="M43.8671 46.5062H42.2391V62.2633H43.8671V46.5062Z" stroke="#434343" stroke-miterlimit="10" stroke-linecap="square"/>
<path d="M42.2393 46.5062H40.6113V62.2633H42.2393V46.5062Z" stroke="#434343" stroke-miterlimit="10" stroke-linecap="square"/>
<path d="M54.7708 49.4913H47.9367V51.0226H54.7708V49.4913Z" stroke="#434343" stroke-miterlimit="10" stroke-linecap="square"/>
<path d="M54.7708 57.7474H47.9367V59.2787H54.7708V57.7474Z" stroke="#434343" stroke-miterlimit="10" stroke-linecap="square"/>
<path d="M57.3791 54.6493H34.5026" stroke="#434343" stroke-miterlimit="10" stroke-linecap="square" stroke-linejoin="round"/>
<path d="M47.9369 51.0223C47.9369 51.0223 47.8485 53.0187 48.8784 54.6501" stroke="#434343" stroke-miterlimit="10"/>
<path d="M47.9369 58.3518C47.9369 58.3518 47.8485 56.3555 48.8784 54.724" stroke="#434343" stroke-miterlimit="10"/>
<path d="M49.1434 49.4913L50.4386 51.0226" stroke="#434343" stroke-miterlimit="10"/>
<path d="M53.0885 49.4913L54.3836 51.0226" stroke="#434343" stroke-miterlimit="10"/>
<path d="M49.1434 57.7474L50.4386 59.2787" stroke="#434343" stroke-miterlimit="10"/>
<path d="M53.0885 57.7474L54.3836 59.2787" stroke="#434343" stroke-miterlimit="10"/>
<path d="M94.8185 82.693L96.5792 84.4324" stroke="#434343" stroke-miterlimit="10"/>
<path d="M99.2394 81.9686L101.835 84.5353" stroke="#434343" stroke-miterlimit="10"/>
<path d="M104.773 81.9686L107.369 84.5353" stroke="#434343" stroke-miterlimit="10"/>
<path d="M110.307 81.9686L112.902 84.5353" stroke="#434343" stroke-miterlimit="10"/>
<path d="M115.711 81.9686L118.309 84.5353" stroke="#434343" stroke-miterlimit="10"/>
<path d="M121.091 81.9686L123.687 84.5353" stroke="#434343" stroke-miterlimit="10"/>
<path d="M126.568 81.9686L129.166 84.5353" stroke="#434343" stroke-miterlimit="10"/>
<path d="M132.112 81.9686L134.71 84.5353" stroke="#434343" stroke-miterlimit="10"/>
<path d="M137.472 81.9686L140.067 84.5353" stroke="#434343" stroke-miterlimit="10"/>
<path d="M142.881 81.9686L145.479 84.5353" stroke="#434343" stroke-miterlimit="10"/>
<path d="M148.16 81.9686L150.755 84.5353" stroke="#434343" stroke-miterlimit="10"/>
<path d="M153.67 81.9686L156.268 84.5353" stroke="#434343" stroke-miterlimit="10"/>
<path d="M159.181 81.9686L161.779 84.5353" stroke="#434343" stroke-miterlimit="10"/>
<path d="M164.538 81.9686L167.136 84.5353" stroke="#434343" stroke-miterlimit="10"/>
<path d="M170.004 81.9686L172.602 84.5353" stroke="#434343" stroke-miterlimit="10"/>
<path d="M175.41 81.9686L178.009 84.5353" stroke="#434343" stroke-miterlimit="10"/>
<path d="M180.729 81.9686L182.635 83.8519" stroke="#434343" stroke-miterlimit="10"/>
<path d="M184.757 41.8387H182.676V84.4578H184.757V41.8387Z" stroke="#434343" stroke-miterlimit="10"/>
<path d="M182.676 45.3584L184.804 43.2567" stroke="#434343" stroke-miterlimit="10"/>
<path d="M182.676 50.7812L184.804 48.6796" stroke="#434343" stroke-miterlimit="10"/>
<path d="M182.676 56.2038L184.804 54.1022" stroke="#434343" stroke-miterlimit="10"/>
<path d="M182.676 61.624L184.804 59.5223" stroke="#434343" stroke-miterlimit="10"/>
<path d="M182.676 67.0468L184.804 64.9452" stroke="#434343" stroke-miterlimit="10"/>
<path d="M182.676 72.4697L184.804 70.368" stroke="#434343" stroke-miterlimit="10"/>
<path d="M182.676 77.8899L184.804 75.7882" stroke="#434343" stroke-miterlimit="10"/>
<path d="M182.676 83.3125L184.804 81.2108" stroke="#434343" stroke-miterlimit="10"/>
<path d="M182.676 31.2579V41.8389" stroke="#434343" stroke-miterlimit="10"/>
<path d="M203.977 29.0179H172.805V31.0836H203.977V29.0179Z" stroke="#434343" stroke-miterlimit="10"/>
<path d="M203.977 26.9498H172.805V29.0155H203.977V26.9498Z" stroke="#434343" stroke-miterlimit="10"/>
<path d="M238.34 29.0179H207.168V31.0836H238.34V29.0179Z" stroke="#434343" stroke-miterlimit="10"/>
<path d="M238.34 26.9498H207.168V29.0155H238.34V26.9498Z" stroke="#434343" stroke-miterlimit="10"/>
<path d="M207.168 13.1246H203.977V31.0832H207.168V13.1246Z" stroke="#434343" stroke-miterlimit="10"/>
<path d="M206.622 9.5282H204.541V13.1252H206.622V9.5282Z" stroke="#434343" stroke-miterlimit="10"/>
<path d="M205.574 3.05481V22.6445" stroke="#434343" stroke-miterlimit="10"/>
<path d="M205.574 25.7477V28.2861" stroke="#434343" stroke-miterlimit="10"/>
<path d="M205.582 31.0831V46.3418" stroke="#434343" stroke-miterlimit="10"/>
<path d="M203.348 36.1549V31.0831" stroke="#434343" stroke-miterlimit="10"/>
<path d="M207.729 31.0831V34.8882" stroke="#434343" stroke-miterlimit="10"/>
<path d="M228.51 31.0831V84.427" stroke="#434343" stroke-miterlimit="10"/>
<path d="M228.513 36.1539H226.32V84.4244H228.513V36.1539Z" stroke="#434343" stroke-miterlimit="10"/>
<path d="M226.32 39.8509L228.427 37.7672" stroke="#434343" stroke-miterlimit="10"/>
<path d="M226.32 45.1786L228.427 43.0975" stroke="#434343" stroke-miterlimit="10"/>
<path d="M226.32 50.5088L228.427 48.4252" stroke="#434343" stroke-miterlimit="10"/>
<path d="M226.32 55.8366L228.427 53.7555" stroke="#434343" stroke-miterlimit="10"/>
<path d="M226.32 61.1668L228.427 59.0831" stroke="#434343" stroke-miterlimit="10"/>
<path d="M226.32 66.4944L228.427 64.4108" stroke="#434343" stroke-miterlimit="10"/>
<path d="M226.32 71.8248L228.427 69.7411" stroke="#434343" stroke-miterlimit="10"/>
<path d="M226.32 77.1524L228.427 75.0687" stroke="#434343" stroke-miterlimit="10"/>
<path d="M226.32 82.4827L228.427 80.399" stroke="#434343" stroke-miterlimit="10"/>
<path d="M182.676 63.964H228.51" stroke="#434343" stroke-miterlimit="10"/>
<path d="M192.158 21.8124H190.499V26.9509H192.158V21.8124Z" stroke="#434343" stroke-miterlimit="10"/>
<path d="M220.709 21.8124H219.049V26.9509H220.709V21.8124Z" stroke="#434343" stroke-miterlimit="10"/>
<path d="M205.574 49.7301V52.4201" stroke="#434343" stroke-miterlimit="10"/>
<path d="M205.574 55.153V70.3474" stroke="#434343" stroke-miterlimit="10"/>
<path d="M205.574 73.4967V76.1122" stroke="#434343" stroke-miterlimit="10"/>
<path d="M205.574 79.1788V94.0471" stroke="#434343" stroke-miterlimit="10"/>
<path d="M223.829 38.8075H218.02V39.7838H223.829V38.8075Z" stroke="#434343" stroke-miterlimit="10"/>
<path d="M223.829 48.0809H218.02V49.0573H223.829V48.0809Z" stroke="#434343" stroke-miterlimit="10"/>
<path d="M223.829 57.84H218.02V58.8163H223.829V57.84Z" stroke="#434343" stroke-miterlimit="10"/>
<path d="M223.829 67.0363H218.02V68.0126H223.829V67.0363Z" stroke="#434343" stroke-miterlimit="10"/>
<path d="M223.829 76.8746H218.02V77.851H223.829V76.8746Z" stroke="#434343" stroke-miterlimit="10"/>
<path d="M184.757 41.8389H186.616C186.616 41.8389 187.557 41.1838 188.392 41.2275C188.392 41.2275 189.359 40.8345 190.909 40.8345C190.909 40.8345 191.44 40.2667 192.415 40.2231C193.388 40.1794 194.009 38.8411 194.805 38.8102C195.601 38.7794 195.556 38.2117 196.355 38.2117C197.153 38.2117 197.007 37.7365 198.003 37.7365C198.999 37.7365 198.518 37.1456 199.083 37.1456C199.647 37.1456 200.029 36.1567 200.893 36.1567C201.756 36.1567 203.813 36.1567 203.813 36.1567L205.584 35.1959H207.732L209.857 35.7867C209.857 35.7867 210.436 36.1592 211.466 36.1592C212.496 36.1592 213.045 35.5504 214.062 35.3295C214.66 35.1985 215.323 35.6146 215.897 35.6146C217.073 35.6146 217.583 35.6146 219.439 35.6146C219.9 35.6146 220.383 35.4605 220.833 35.4605C221.782 35.4605 222.555 35.5812 223.301 35.6069C224.515 35.6506 224.651 35.5812 225.225 35.7045C225.8 35.8278 226.32 36.4623 226.32 36.4623L228.512 37.0326" stroke="#434343" stroke-miterlimit="10"/>
<path d="M205.574 46.342C207.224 46.342 208.562 45.0205 208.562 43.3904C208.562 41.7603 207.224 40.4388 205.574 40.4388C203.923 40.4388 202.586 41.7603 202.586 43.3904C202.586 45.0205 203.923 46.342 205.574 46.342Z" stroke="#434343" stroke-miterlimit="10"/>
<path d="M205.573 47.7497C208.011 47.7497 209.987 45.798 209.987 43.3904C209.987 40.9828 208.011 39.0311 205.573 39.0311C203.136 39.0311 201.16 40.9828 201.16 43.3904C201.16 45.798 203.136 47.7497 205.573 47.7497Z" stroke="#434343" stroke-miterlimit="10"/>
<path d="M184.757 84.4605C184.757 84.4605 196.116 88.6477 205.574 88.6477C215.032 88.6477 226.32 84.4271 226.32 84.4271H228.513C228.513 84.4271 219.088 90.0888 205.576 90.0888C192.061 90.0888 182.679 84.4605 182.679 84.4605H184.757Z" stroke="#434343" stroke-miterlimit="10"/>
<path d="M258.52 81.9557H228.51V84.4273H258.52V81.9557Z" stroke="#434343" stroke-miterlimit="10"/>
<path d="M277.402 81.9557H263.812V84.4273H277.402V81.9557Z" stroke="#434343" stroke-miterlimit="10"/>
<path d="M294.043 81.9557H285.058V84.4273H294.043V81.9557Z" stroke="#434343" stroke-miterlimit="10"/>
<path d="M229.594 81.9557L232.13 84.4607" stroke="#434343" stroke-miterlimit="10"/>
<path d="M235.118 81.9557L237.651 84.4607" stroke="#434343" stroke-miterlimit="10"/>
<path d="M240.639 81.9557L243.174 84.4607" stroke="#434343" stroke-miterlimit="10"/>
<path d="M246.162 81.9557L248.695 84.4607" stroke="#434343" stroke-miterlimit="10"/>
<path d="M251.683 81.9557L254.216 84.4607" stroke="#434343" stroke-miterlimit="10"/>
<path d="M267.684 81.9557L270.219 84.4607" stroke="#434343" stroke-miterlimit="10"/>
<path d="M273.111 81.9557L275.647 84.4607" stroke="#434343" stroke-miterlimit="10"/>
<path d="M285.029 82.8832L286.626 84.4607" stroke="#434343" stroke-miterlimit="10"/>
<path d="M289.333 81.9557L291.869 84.4607" stroke="#434343" stroke-miterlimit="10"/>
<path d="M257.204 81.9557L258.522 83.2583" stroke="#434343" stroke-miterlimit="10"/>
<path d="M259.695 79.8751H258.522V87.3349H259.695V79.8751Z" stroke="#434343" stroke-miterlimit="10"/>
<path d="M258.522 84.4271H257.62V94.877H258.522V84.4271Z" stroke="#434343" stroke-miterlimit="10"/>
<path d="M264.714 84.4271H263.812V94.877H264.714V84.4271Z" stroke="#434343" stroke-miterlimit="10"/>
<path d="M263.341 87.3348H262.439V92.2319H263.341V87.3348Z" stroke="#434343" stroke-miterlimit="10"/>
<path d="M262.241 87.3348H260.116V94.8769H262.241V87.3348Z" stroke="#434343" stroke-miterlimit="10"/>
<path d="M259.695 87.3348H258.793V92.2319H259.695V87.3348Z" stroke="#434343" stroke-miterlimit="10"/>
<path d="M261.177 79.4872H259.695V87.5764H261.177V79.4872Z" stroke="#434343" stroke-miterlimit="10"/>
<path d="M262.262 69.1014H260.304V79.4871H262.262V69.1014Z" stroke="#434343" stroke-miterlimit="10"/>
<path d="M263.812 63.91H258.522V79.662H263.812V63.91Z" stroke="#434343" stroke-miterlimit="10"/>
<path d="M263.812 31.6508H258.522V63.8328H263.812V31.6508Z" stroke="#434343" stroke-miterlimit="10"/>
<path d="M262.439 79.4872H261.177V87.5764H262.439V79.4872Z" stroke="#434343" stroke-miterlimit="10"/>
<path d="M263.812 79.8751H262.439V87.3349H263.812V79.8751Z" stroke="#434343" stroke-miterlimit="10"/>
<path d="M261.281 67.2982V70.3633" stroke="#434343" stroke-miterlimit="10"/>
<path d="M261.281 72.9393V79.4872" stroke="#434343" stroke-miterlimit="10"/>
<path d="M261.167 31.6508V42.1007" stroke="#434343" stroke-miterlimit="10"/>
<path d="M261.167 45.2269V47.7422" stroke="#434343" stroke-miterlimit="10"/>
<path d="M261.281 50.3878V63.91" stroke="#434343" stroke-miterlimit="10"/>
<path d="M258.522 32.1649L257.503 31.1603V30.0658H264.906V31.2143L263.827 32.2805" stroke="#434343" stroke-miterlimit="10"/>
<path d="M263.812 69.1014H265.848L270.607 79.2225V81.9557" stroke="#434343" stroke-miterlimit="10"/>
<path d="M258.522 69.1014H256.486L251.727 79.2225V81.9557" stroke="#434343" stroke-miterlimit="10"/>
<path d="M283.552 80.9078H280.499V95.83H283.552V80.9078Z" stroke="#434343" stroke-miterlimit="10"/>
<path d="M282.026 97.6308V74.0209" stroke="#434343" stroke-miterlimit="10"/>
<path d="M280.499 81.9558H277.402V84.427C277.402 84.427 277.215 86.7107 278.343 88.6784C279.472 90.6461 277.779 91.1701 277.813 92.4494C277.846 93.7287 277.846 93.7287 277.846 93.7287C277.846 93.7287 279.207 94.9411 280.502 95.2699C281.797 95.5987 282.028 95.8274 282.028 95.8274C282.028 95.8274 284.839 96.1562 285.06 94.7767C285.281 93.3973 284.584 92.9066 284.551 91.7918C284.517 90.6769 285.614 89.1356 285.614 88.2186C285.614 87.3015 285.06 86.0762 285.06 84.4244C285.06 82.7727 285.06 81.9532 285.06 81.9532H283.555" stroke="#434343" stroke-miterlimit="10"/>
<path d="M50.3709 81.9686L52.6127 84.1808" stroke="#434343" stroke-miterlimit="10"/>
<path d="M45.1439 81.9686L47.3831 84.1808" stroke="#434343" stroke-miterlimit="10"/>
<path d="M39.6411 81.9686L41.8803 84.1808" stroke="#434343" stroke-miterlimit="10"/>
<path d="M18.0232 81.9686L20.2624 84.1808" stroke="#434343" stroke-miterlimit="10"/>
<path d="M22.9174 81.9686V84.4604C22.9174 84.4604 23.5805 87.5327 24.9744 88.8119C26.3683 90.0912 27.2316 90.6152 28.1626 90.7796C29.0936 90.944 28.9272 91.075 29.8217 91.0416C30.7189 91.0082 33.0099 89.7418 33.0411 87.5558C33.0749 85.3697 36.2606 81.9712 36.2606 81.9712H22.9174V81.9686Z" stroke="#434343" stroke-miterlimit="10"/>
<path d="M27.0627 90.3943V81.4831L27.588 80.9642H30.056L30.5007 81.4035V90.9184C30.5007 90.9184 29.8844 91.1804 28.7791 90.9184C27.6738 90.6538 27.0627 90.3943 27.0627 90.3943Z" stroke="#434343" stroke-miterlimit="10"/>
<path d="M28.7815 73.9232V90.8774" stroke="#434343" stroke-miterlimit="10"/>
<path d="M22.088 84.4603L7.28079 115.273L5.2238 114.225L19.5629 84.4166L22.088 84.4603Z" stroke="#434343" stroke-miterlimit="10"/>
<path d="M7.28093 115.273V130.951L5.2238 132.328V114.225L7.28093 115.273Z" stroke="#434343" stroke-miterlimit="10"/>
<path d="M7.28079 130.951L21.8202 161.512H19.1L5.2238 132.328L7.28079 130.951Z" stroke="#434343" stroke-miterlimit="10"/>
<path d="M21.8201 103.359V161.512" stroke="#434343" stroke-miterlimit="10"/>
<path d="M21.8201 84.6942V92.7577" stroke="#434343" stroke-miterlimit="10"/>
<path d="M0.7742 92.7577V103.359H24.0798L28.329 92.7577H0.7742Z" stroke="#434343" stroke-miterlimit="10"/>
<path d="M6.66692 102.419H0.7742V103.359H6.66692V102.419Z" stroke="#434343" stroke-miterlimit="10"/>
<path d="M6.66692 92.7577H0.7742V93.698H6.66692V92.7577Z" stroke="#434343" stroke-miterlimit="10"/>
<path d="M3.81708 93.6979H2.7222V102.419H3.81708V93.6979Z" stroke="#434343" stroke-miterlimit="10"/>
<path d="M6.66698 93.6979C6.66698 93.6979 6.35229 96.6037 7.546 97.9166" stroke="#434343" stroke-miterlimit="10"/>
<path d="M6.66698 102.278C6.66698 102.278 6.35229 99.3726 7.546 98.0597" stroke="#434343" stroke-miterlimit="10"/>
<path d="M10.3336 97.9159H0.7742" stroke="#434343" stroke-miterlimit="10"/>
<path d="M17.108 97.9159H26.2045" stroke="#434343" stroke-miterlimit="10"/>
<path d="M26.2046 97.9159L31.4498 103.5" stroke="#434343" stroke-miterlimit="10"/>
<path d="M23.9811 103.359L26.2046 105.728" stroke="#434343" stroke-miterlimit="10"/>
<path d="M28.511 92.6959L36.8482 101.283" stroke="#434343" stroke-miterlimit="10"/>
<path d="M36.8484 101.284L26.2046 105.728V152.244H36.8484V101.284ZM36.8484 101.284V160.595H43.7553V158.167L38.6193 147.15L36.8484 147.17" stroke="#434343" stroke-miterlimit="10"/>
<path d="M0.0432434 123.275H14.9155" stroke="#434343" stroke-miterlimit="10"/>
<path d="M18.2366 123.275H21.2456" stroke="#434343" stroke-miterlimit="10"/>
<path d="M23.8121 123.275H39.4385" stroke="#434343" stroke-miterlimit="10"/>
<path d="M42.5799 123.275H45.1494" stroke="#434343" stroke-miterlimit="10"/>
<path d="M48.3788 123.275H63.2953" stroke="#434343" stroke-miterlimit="10"/>
<path d="M67.6407 123.275H69.5366" stroke="#434343" stroke-miterlimit="10"/>
<path d="M73.2995 123.275H88.8375" stroke="#434343" stroke-miterlimit="10"/>
<path d="M91.9789 123.275H94.5458" stroke="#434343" stroke-miterlimit="10"/>
<path d="M97.7336 123.275H106.011" stroke="#434343" stroke-miterlimit="10"/>
<path d="M111.233 123.275H113.314" stroke="#434343" stroke-miterlimit="10"/>
<path d="M116.457 123.275H119.599" stroke="#434343" stroke-miterlimit="10"/>
<path d="M123.983 123.275H137.659" stroke="#434343" stroke-miterlimit="10"/>
<path d="M140.314 123.275H143.016" stroke="#434343" stroke-miterlimit="10"/>
<path d="M146.555 123.275H160.853" stroke="#434343" stroke-miterlimit="10"/>
<path d="M165.9 123.275H168.379" stroke="#434343" stroke-miterlimit="10"/>
<path d="M171.078 123.275H187.191" stroke="#434343" stroke-miterlimit="10"/>
<path d="M190.2 123.275H192.857" stroke="#434343" stroke-miterlimit="10"/>
<path d="M195.999 123.275H211.669" stroke="#434343" stroke-miterlimit="10"/>
<path d="M214.811 123.275H216.803" stroke="#434343" stroke-miterlimit="10"/>
<path d="M220.521 123.275H236.369" stroke="#434343" stroke-miterlimit="10"/>
<path d="M239.333 123.275H242.298" stroke="#434343" stroke-miterlimit="10"/>
<path d="M244.911 123.275H260.447" stroke="#434343" stroke-miterlimit="10"/>
<path d="M267.796 123.275H285.456" stroke="#434343" stroke-miterlimit="10"/>
<path d="M288.6 123.275H291.166" stroke="#434343" stroke-miterlimit="10"/>
<path d="M294.797 123.275H309.934" stroke="#434343" stroke-miterlimit="10"/>
<path d="M31.8685 152.243V142.711" stroke="#434343" stroke-miterlimit="10"/>
<path d="M31.8685 140.278V137.683" stroke="#434343" stroke-miterlimit="10"/>
<path d="M31.8685 134.665V123.704" stroke="#434343" stroke-miterlimit="10"/>
<path d="M31.8685 120.149V117.613" stroke="#434343" stroke-miterlimit="10"/>
<path d="M31.8685 114.554V103.994L31.4498 103.5" stroke="#434343" stroke-miterlimit="10"/>
<path d="M81.8213 145.138H70.3349V146.056H81.8213V145.138Z" stroke="#434343" stroke-miterlimit="10"/>
<path d="M81.6653 146.055H70.4884V146.973H81.6653V146.055Z" stroke="#434343" stroke-miterlimit="10"/>
<path d="M83.2593 147.216H68.8083V148.177H83.2593V147.216Z" stroke="#434343" stroke-miterlimit="10"/>
<path d="M81.8213 148.177H70.3349V149.773H81.8213V148.177Z" stroke="#434343" stroke-miterlimit="10"/>
<path d="M78.1936 151.856H73.9652V152.855H78.1936V151.856Z" stroke="#434343" stroke-miterlimit="10"/>
<path d="M77.705 152.883H74.4515V154.867H77.705V152.883Z" stroke="#434343" stroke-miterlimit="10"/>
<path d="M79.1635 154.866H72.99V156.485H79.1635V154.866Z" stroke="#434343" stroke-miterlimit="10"/>
<path d="M83.3477 149.747H68.8083V150.803H83.3477V149.747Z" stroke="#434343" stroke-miterlimit="10"/>
<path d="M83.3477 150.8H68.8083V151.856H83.3477V150.8Z" stroke="#434343" stroke-miterlimit="10"/>
<path d="M16.9078 161.512L19.4539 164.027" stroke="#434343" stroke-miterlimit="10"/>
<path d="M22.6626 161.512L25.206 164.027" stroke="#434343" stroke-miterlimit="10"/>
<path d="M28.1886 161.512L30.7346 164.027" stroke="#434343" stroke-miterlimit="10"/>
<path d="M33.4729 161.512L36.0189 164.027" stroke="#434343" stroke-miterlimit="10"/>
<path d="M38.9234 161.512L41.4695 164.027" stroke="#434343" stroke-miterlimit="10"/>
<path d="M44.2363 161.512L46.7797 164.027" stroke="#434343" stroke-miterlimit="10"/>
<path d="M49.5465 161.512L52.0925 164.027" stroke="#434343" stroke-miterlimit="10"/>
<path d="M55.0388 161.512L57.5848 164.027" stroke="#434343" stroke-miterlimit="10"/>
<path d="M60.5335 161.512L63.077 164.027" stroke="#434343" stroke-miterlimit="10"/>
<path d="M66.0207 161.512L68.5641 164.027" stroke="#434343" stroke-miterlimit="10"/>
<path d="M71.5052 161.512L74.0513 164.027" stroke="#434343" stroke-miterlimit="10"/>
<path d="M76.9921 161.512L79.5382 164.027" stroke="#434343" stroke-miterlimit="10"/>
<path d="M82.4793 161.512L85.0228 164.027" stroke="#434343" stroke-miterlimit="10"/>
<path d="M87.9662 161.512L90.5097 164.027" stroke="#434343" stroke-miterlimit="10"/>
<path d="M93.4532 161.512L95.9966 164.027" stroke="#434343" stroke-miterlimit="10"/>
<path d="M98.9403 161.512L101.484 164.027" stroke="#434343" stroke-miterlimit="10"/>
<path d="M104.123 161.512L106.667 164.027" stroke="#434343" stroke-miterlimit="10"/>
<path d="M109.714 161.512L112.26 164.027" stroke="#434343" stroke-miterlimit="10"/>
<path d="M115.003 161.512L117.55 164.027" stroke="#434343" stroke-miterlimit="10"/>
<path d="M120.667 161.512L123.211 164.027" stroke="#434343" stroke-miterlimit="10"/>
<path d="M125.936 161.512L128.48 164.027" stroke="#434343" stroke-miterlimit="10"/>
<path d="M131.277 161.512L133.821 164.027" stroke="#434343" stroke-miterlimit="10"/>
<path d="M136.619 161.512L139.165 164.027" stroke="#434343" stroke-miterlimit="10"/>
<path d="M141.96 161.512L144.506 164.027" stroke="#434343" stroke-miterlimit="10"/>
<path d="M147.304 161.512L149.848 164.027" stroke="#434343" stroke-miterlimit="10"/>
<path d="M152.646 161.512L155.189 164.027" stroke="#434343" stroke-miterlimit="10"/>
<path d="M158.242 161.512L160.788 164.027" stroke="#434343" stroke-miterlimit="10"/>
<path d="M163.503 161.512L166.046 164.027" stroke="#434343" stroke-miterlimit="10"/>
<path d="M169.299 161.512L171.843 164.027" stroke="#434343" stroke-miterlimit="10"/>
<path d="M174.896 161.512L177.442 164.027" stroke="#434343" stroke-miterlimit="10"/>
<path d="M179.925 161.512L182.471 164.027" stroke="#434343" stroke-miterlimit="10"/>
<path d="M185.287 161.512L187.833 164.027" stroke="#434343" stroke-miterlimit="10"/>
<path d="M190.881 161.512L193.427 164.027" stroke="#434343" stroke-miterlimit="10"/>
<path d="M196.475 161.512L199.021 164.027" stroke="#434343" stroke-miterlimit="10"/>
<path d="M202.068 161.512L204.614 164.027" stroke="#434343" stroke-miterlimit="10"/>
<path d="M207.464 161.512L210.008 164.027" stroke="#434343" stroke-miterlimit="10"/>
<path d="M212.527 161.512L215.071 164.027" stroke="#434343" stroke-miterlimit="10"/>
<path d="M218.069 161.512L220.615 164.027" stroke="#434343" stroke-miterlimit="10"/>
<path d="M223.416 161.502L225.959 164.017" stroke="#434343" stroke-miterlimit="10"/>
<path d="M228.929 161.502L231.472 164.017" stroke="#434343" stroke-miterlimit="10"/>
<path d="M234.442 161.502L236.988 164.017" stroke="#434343" stroke-miterlimit="10"/>
<path d="M239.955 161.502L242.501 164.017" stroke="#434343" stroke-miterlimit="10"/>
<path d="M245.455 161.514L248.001 164.027" stroke="#434343" stroke-miterlimit="10"/>
<path d="M250.513 161.514L253.056 164.027" stroke="#434343" stroke-miterlimit="10"/>
<path d="M255.883 161.514L258.429 164.027" stroke="#434343" stroke-miterlimit="10"/>
<path d="M261.385 161.514L263.931 164.027" stroke="#434343" stroke-miterlimit="10"/>
<path d="M266.844 161.514L269.387 164.027" stroke="#434343" stroke-miterlimit="10"/>
<path d="M272.328 161.514L274.159 163.326" stroke="#434343" stroke-miterlimit="10"/>
<path d="M30.2304 164.004H27.1329V167.634H30.2304V164.004Z" stroke="#434343" stroke-miterlimit="10"/>
<path d="M283.552 164.004H280.455V167.634H283.552V164.004Z" stroke="#434343" stroke-miterlimit="10"/>
<path d="M123.939 87.62H119.822V157.404H123.939V87.62Z" stroke="#434343" stroke-miterlimit="10"/>
<path d="M120.834 150.576V161.53" stroke="#434343" stroke-miterlimit="10"/>
<path d="M122.904 150.576V161.53" stroke="#434343" stroke-miterlimit="10"/>
<path d="M120.834 139.87V147.45" stroke="#434343" stroke-miterlimit="10"/>
<path d="M122.904 139.87V147.45" stroke="#434343" stroke-miterlimit="10"/>
<path d="M120.834 129.289V136.869" stroke="#434343" stroke-miterlimit="10"/>
<path d="M122.904 129.289V136.869" stroke="#434343" stroke-miterlimit="10"/>
<path d="M120.834 118.708V126.288" stroke="#434343" stroke-miterlimit="10"/>
<path d="M122.904 118.708V126.288" stroke="#434343" stroke-miterlimit="10"/>
<path d="M120.834 108.124V115.707" stroke="#434343" stroke-miterlimit="10"/>
<path d="M122.904 108.124V115.707" stroke="#434343" stroke-miterlimit="10"/>
<path d="M120.834 97.5433V105.124" stroke="#434343" stroke-miterlimit="10"/>
<path d="M122.904 97.5433V105.124" stroke="#434343" stroke-miterlimit="10"/>
<path d="M120.834 84.4603V94.5429" stroke="#434343" stroke-miterlimit="10"/>
<path d="M122.904 84.4603V94.5429" stroke="#434343" stroke-miterlimit="10"/>
<path d="M145.388 87.62H141.271V157.404H145.388V87.62Z" stroke="#434343" stroke-miterlimit="10"/>
<path d="M142.283 150.576V161.53" stroke="#434343" stroke-miterlimit="10"/>
<path d="M144.355 150.576V161.53" stroke="#434343" stroke-miterlimit="10"/>
<path d="M142.283 139.87V147.45" stroke="#434343" stroke-miterlimit="10"/>
<path d="M144.355 139.87V147.45" stroke="#434343" stroke-miterlimit="10"/>
<path d="M142.283 129.289V136.869" stroke="#434343" stroke-miterlimit="10"/>
<path d="M144.355 129.289V136.869" stroke="#434343" stroke-miterlimit="10"/>
<path d="M142.283 118.708V126.288" stroke="#434343" stroke-miterlimit="10"/>
<path d="M144.355 118.708V126.288" stroke="#434343" stroke-miterlimit="10"/>
<path d="M142.283 108.124V115.707" stroke="#434343" stroke-miterlimit="10"/>
<path d="M144.355 108.124V115.707" stroke="#434343" stroke-miterlimit="10"/>
<path d="M142.283 97.5433V105.124" stroke="#434343" stroke-miterlimit="10"/>
<path d="M144.355 97.5433V105.124" stroke="#434343" stroke-miterlimit="10"/>
<path d="M142.283 84.4603V94.5429" stroke="#434343" stroke-miterlimit="10"/>
<path d="M144.355 84.4603V94.5429" stroke="#434343" stroke-miterlimit="10"/>
<path d="M164.969 87.62H160.853V157.404H164.969V87.62Z" stroke="#434343" stroke-miterlimit="10"/>
<path d="M161.867 150.576V161.53" stroke="#434343" stroke-miterlimit="10"/>
<path d="M163.937 150.576V161.53" stroke="#434343" stroke-miterlimit="10"/>
<path d="M161.867 139.87V147.45" stroke="#434343" stroke-miterlimit="10"/>
<path d="M163.937 139.87V147.45" stroke="#434343" stroke-miterlimit="10"/>
<path d="M161.867 129.289V136.869" stroke="#434343" stroke-miterlimit="10"/>
<path d="M163.937 129.289V136.869" stroke="#434343" stroke-miterlimit="10"/>
<path d="M161.867 118.708V126.288" stroke="#434343" stroke-miterlimit="10"/>
<path d="M163.937 118.708V126.288" stroke="#434343" stroke-miterlimit="10"/>
<path d="M161.867 108.124V115.707" stroke="#434343" stroke-miterlimit="10"/>
<path d="M163.937 108.124V115.707" stroke="#434343" stroke-miterlimit="10"/>
<path d="M161.867 97.5433V105.124" stroke="#434343" stroke-miterlimit="10"/>
<path d="M163.937 97.5433V105.124" stroke="#434343" stroke-miterlimit="10"/>
<path d="M161.867 84.4603V94.5429" stroke="#434343" stroke-miterlimit="10"/>
<path d="M163.937 84.4603V94.5429" stroke="#434343" stroke-miterlimit="10"/>
<path d="M234.219 88.2668L232.192 87.39L200.458 158.979L202.485 159.855L234.219 88.2668Z" stroke="#434343" stroke-miterlimit="10"/>
<path d="M204.032 161.408L202.086 161.397L204.448 156.071L206.083 156.78L204.032 161.408Z" stroke="#434343" stroke-miterlimit="10"/>
<path d="M234.619 84.4271C234.619 84.4271 232.567 86.4003 232.962 87.7209C233.357 89.0415 234.187 87.7954 235.316 88.8129C236.444 89.8303 236.944 85.9584 234.286 85.8608" stroke="#434343" stroke-miterlimit="10"/>
<path d="M232.208 87.3915L233.292 90.6133" stroke="#434343" stroke-miterlimit="10"/>
<path d="M231.649 88.5424L232.733 91.7642" stroke="#434343" stroke-miterlimit="10"/>
<path d="M231.121 89.7343L232.205 92.9561" stroke="#434343" stroke-miterlimit="10"/>
<path d="M230.606 90.8954L231.69 94.1172" stroke="#434343" stroke-miterlimit="10"/>
<path d="M229.904 92.3134L230.988 95.5327" stroke="#434343" stroke-miterlimit="10"/>
<path d="M229.373 93.6747L230.458 96.8966" stroke="#434343" stroke-miterlimit="10"/>
<path d="M228.812 94.9437L229.896 98.1656" stroke="#434343" stroke-miterlimit="10"/>
<path d="M228.268 96.0844L229.353 99.3062" stroke="#434343" stroke-miterlimit="10"/>
<path d="M223.67 106.894L224.734 110.054" stroke="#434343" stroke-miterlimit="10"/>
<path d="M223.104 108.027L224.167 111.187" stroke="#434343" stroke-miterlimit="10"/>
<path d="M222.565 109.203L223.629 112.363" stroke="#434343" stroke-miterlimit="10"/>
<path d="M222.04 110.349L223.104 113.509" stroke="#434343" stroke-miterlimit="10"/>
<path d="M221.327 111.746L222.391 114.906" stroke="#434343" stroke-miterlimit="10"/>
<path d="M220.787 113.09L221.85 116.25" stroke="#434343" stroke-miterlimit="10"/>
<path d="M220.214 114.341L221.278 117.501" stroke="#434343" stroke-miterlimit="10"/>
<path d="M219.663 115.466L220.727 118.626" stroke="#434343" stroke-miterlimit="10"/>
<path d="M215.185 125.893L216.249 129.053" stroke="#434343" stroke-miterlimit="10"/>
<path d="M214.616 127.028L215.679 130.188" stroke="#434343" stroke-miterlimit="10"/>
<path d="M214.077 128.205L215.144 131.365" stroke="#434343" stroke-miterlimit="10"/>
<path d="M213.555 129.348L214.618 132.511" stroke="#434343" stroke-miterlimit="10"/>
<path d="M212.904 130.93L213.906 133.905" stroke="#434343" stroke-miterlimit="10"/>
<path d="M212.301 132.089L213.365 135.249" stroke="#434343" stroke-miterlimit="10"/>
<path d="M211.768 133.455L212.832 136.615" stroke="#434343" stroke-miterlimit="10"/>
<path d="M211.217 134.578L212.28 137.738" stroke="#434343" stroke-miterlimit="10"/>
<path d="M205.844 146.944L206.908 150.104" stroke="#434343" stroke-miterlimit="10"/>
<path d="M205.277 148.079L206.341 151.24" stroke="#434343" stroke-miterlimit="10"/>
<path d="M204.739 149.254L205.802 152.414" stroke="#434343" stroke-miterlimit="10"/>
<path d="M204.216 150.399L205.28 153.559" stroke="#434343" stroke-miterlimit="10"/>
<path d="M203.563 151.979L204.567 154.957" stroke="#434343" stroke-miterlimit="10"/>
<path d="M202.963 153.14L204.026 156.3" stroke="#434343" stroke-miterlimit="10"/>
<path d="M202.43 154.504L203.493 157.664" stroke="#434343" stroke-miterlimit="10"/>
<path d="M201.878 155.629L202.942 158.789" stroke="#434343" stroke-miterlimit="10"/>
<path d="M261.177 90.4381V92.9097" stroke="#434343" stroke-miterlimit="10"/>
<path d="M257.62 92.2311H256.021V104.32H257.62V92.2311Z" stroke="#434343" stroke-miterlimit="10"/>
<path d="M266.313 92.2311H264.714V104.32H266.313V92.2311Z" stroke="#434343" stroke-miterlimit="10"/>
<path d="M256.021 104.322V152.418H266.422V104.322H264.714C264.714 104.322 263.734 105.83 262.441 105.83C261.146 105.83 260.371 104.322 259.698 104.322C259.024 104.322 256.021 104.322 256.021 104.322Z" stroke="#434343" stroke-miterlimit="10"/>
<path d="M261.222 95.5653V109.93" stroke="#434343" stroke-miterlimit="10"/>
<path d="M261.222 113.044V115.582" stroke="#434343" stroke-miterlimit="10"/>
<path d="M261.222 118.161V132.523" stroke="#434343" stroke-miterlimit="10"/>
<path d="M261.222 135.716V137.684" stroke="#434343" stroke-miterlimit="10"/>
<path d="M261.222 140.743V152.418" stroke="#434343" stroke-miterlimit="10"/>
<path d="M266.423 161.512V148.658H268.116L273.244 159.349V161.512H266.423Z" stroke="#434343" stroke-miterlimit="10"/>
<path d="M274.169 164.004V161.512C274.169 161.512 275.254 160.266 275.254 159.316C275.254 158.365 274.71 157.546 274.71 156.693C274.71 155.84 275.519 153.721 275.519 152.418C275.519 151.118 274.843 149.903 274.843 148.92C274.843 147.936 276.913 143.805 277.243 141.935C277.573 140.065 278.572 136.525 278.837 135.115C279.103 133.705 281.03 128.295 281.03 127.277C281.03 126.26 281.329 125.441 281.526 124.359C281.726 123.278 282.59 121.112 282.621 119.669C282.655 118.225 283.617 116.16 283.583 114.978C283.549 113.796 284.844 110.649 285.177 109.73C285.51 108.81 287.102 105.73 287.135 104.32C287.169 102.91 287.135 99.4675 287.135 99.4675C287.135 99.4675 290.854 95.3034 290.953 94.3196C291.052 93.3357 291.418 92.5805 291.418 92.5805L294.074 89.7831V164.004H274.169Z" stroke="#434343" stroke-miterlimit="10"/>
<path d="M294.076 152.942L303.914 132.523V113.678L289.926 84.4271" stroke="#434343" stroke-miterlimit="10"/>
<path d="M287.094 84.4271L291.34 92.7681" stroke="#434343" stroke-miterlimit="10"/>
<path d="M287.138 99.4675V84.4271" stroke="#434343" stroke-miterlimit="10"/>
<path d="M294.076 89.7841V84.4271" stroke="#434343" stroke-miterlimit="10"/>
</g>
<defs>
<clipPath id="clip0_385_427">
<rect width="309.979" height="168" fill="white" transform="translate(-0.000701904 0.000976562)"/>
</clipPath>
</defs>
</svg>
