<svg width="311" height="168" viewBox="0 0 311 168" fill="none" xmlns="http://www.w3.org/2000/svg">
<g clip-path="url(#clip0_385_3067)">
<path d="M91.8139 48.2769V155.689" stroke="#434343" stroke-width="2" stroke-miterlimit="10"/>
<path d="M87.8013 155.689H133.19" stroke="#434343" stroke-width="2" stroke-miterlimit="10"/>
<path d="M89.1125 50.8273V48.2769" stroke="#434343" stroke-width="2" stroke-miterlimit="10"/>
<path d="M86.8076 48.2768H89.1125V46.8448L131.599 26.2917" stroke="#434343" stroke-width="2" stroke-miterlimit="10"/>
<path d="M108.704 37.3685V32.5344" stroke="#434343" stroke-width="2" stroke-miterlimit="10"/>
<path d="M105.583 32.5344H111.63" stroke="#434343" stroke-width="2" stroke-miterlimit="10"/>
<path d="M91.8139 147.027H86.9382" stroke="#434343" stroke-width="2" stroke-miterlimit="10"/>
<path d="M86.9382 149.297V144.28" stroke="#434343" stroke-width="2" stroke-miterlimit="10"/>
<path d="M133.19 155.839C133.19 155.839 134.739 128.089 134.8 123.849C134.861 119.609 131.641 112.678 131.641 98.2183C131.641 83.7581 133.218 46.3629 133.218 41.7441C133.218 37.1252 131.151 26.5071 131.151 26.5071" stroke="#434343" stroke-miterlimit="10"/>
<path d="M131.599 25.8144L150.822 16.8154H155.982L215.387 47.7199V153.897H133.232" stroke="#434343" stroke-width="2" stroke-miterlimit="10"/>
<path d="M218.247 154.135H133.19V155.918H218.247V154.135Z" stroke="#434343" stroke-miterlimit="10"/>
<path d="M219.955 142.347H215.387V148.88H219.955V142.347Z" stroke="#434343" stroke-miterlimit="10"/>
<path d="M220.86 140.677H219.955V150.593H220.86V140.677Z" stroke="#434343" stroke-miterlimit="10"/>
<path d="M132.448 65.8069C132.448 65.8771 215.387 65.8069 215.387 65.8069" stroke="#434343" stroke-miterlimit="10"/>
<path d="M131.893 83.8H215.387" stroke="#434343" stroke-miterlimit="10"/>
<path d="M131.893 101.723H215.625" stroke="#434343" stroke-miterlimit="10"/>
<path d="M134.198 119.445C135.094 119.487 215.625 119.445 215.625 119.445" stroke="#434343" stroke-miterlimit="10"/>
<path d="M134.198 136.615H215.625" stroke="#434343" stroke-miterlimit="10"/>
<path d="M140.735 153.897V136.933" stroke="#434343" stroke-miterlimit="10"/>
<path d="M194.499 153.897V136.615" stroke="#434343" stroke-miterlimit="10"/>
<path d="M210.306 136.615V119.445" stroke="#434343" stroke-miterlimit="10"/>
<path d="M140.735 119.445V101.723" stroke="#434343" stroke-miterlimit="10"/>
<path d="M194.499 119.445V101.723" stroke="#434343" stroke-miterlimit="10"/>
<path d="M170.596 101.723V83.8" stroke="#434343" stroke-miterlimit="10"/>
<path d="M194.499 83.8002V65.835" stroke="#434343" stroke-miterlimit="10"/>
<path d="M170.596 65.8347V47.7993" stroke="#434343" stroke-miterlimit="10"/>
<path d="M210.306 65.8067V47.7993" stroke="#434343" stroke-miterlimit="10"/>
<path d="M140.735 83.8002V65.835" stroke="#434343" stroke-miterlimit="10"/>
<path d="M153.202 0.366211V1.30177" stroke="#434343" stroke-width="2" stroke-miterlimit="10"/>
<path d="M153.202 1.77008V2.47175" stroke="#434343" stroke-width="2" stroke-miterlimit="10" stroke-dasharray="1 1"/>
<path d="M153.202 2.70605V166.466" stroke="#434343" stroke-width="2" stroke-miterlimit="10" stroke-dasharray="4.01 1 1 1"/>
<path d="M153.202 166.7V167.636" stroke="#434343" stroke-width="2" stroke-miterlimit="10"/>
<path d="M188.517 33.7418V31.3083H195.282V37.0175" stroke="#434343" stroke-miterlimit="10"/>
<path d="M186.977 31.1631H196.775" stroke="#434343" stroke-miterlimit="10"/>
<path d="M186.977 30.2039H196.775" stroke="#434343" stroke-width="2" stroke-miterlimit="10"/>
<path d="M149.866 152.942L168.291 135.576V137.649L152.329 152.942H149.866Z" stroke="#434343" stroke-miterlimit="10"/>
<path d="M168.291 135.576H172.98V137.471H168.393L168.291 135.576Z" stroke="#434343" stroke-miterlimit="10"/>
<path d="M172.98 135.576L183.581 120.475V122.623L172.98 137.471V135.576Z" stroke="#434343" stroke-miterlimit="10"/>
<path d="M183.581 120.475C183.73 120.475 187.752 120.475 187.752 120.475V122.356H183.581V120.475Z" stroke="#434343" stroke-miterlimit="10"/>
<path d="M187.747 120.475L196.892 105.121V107.091L187.747 122.356V120.475Z" stroke="#434343" stroke-miterlimit="10"/>
<path d="M200.438 105.121H196.892V106.913H200.438V105.121Z" stroke="#434343" stroke-miterlimit="10"/>
<path d="M200.438 105.121L207.88 89.458V91.8493L200.438 106.913V105.121Z" stroke="#434343" stroke-miterlimit="10"/>
<path d="M210.423 89.458H207.88V91.5311H210.423V89.458Z" stroke="#434343" stroke-miterlimit="10"/>
<path d="M210.423 89.4578L215.387 76.1161H217.529L223.31 47.7995L223.011 35.52" stroke="#434343" stroke-miterlimit="10"/>
<path d="M150.342 152.942V142.904L168.291 125.861V137.471" stroke="#434343" stroke-miterlimit="10"/>
<path d="M159.319 134.383V146.531" stroke="#434343" stroke-miterlimit="10"/>
<path d="M150.342 147.767C150.58 147.528 168.291 130.48 168.291 130.48L172.975 130.321L183.576 115.187H187.547L196.887 99.8937H200.433L207.88 84.6379H209.868L215.387 71.095" stroke="#434343" stroke-miterlimit="10"/>
<path d="M168.291 125.861H172.98V137.471" stroke="#434343" stroke-miterlimit="10"/>
<path d="M172.98 125.861L183.581 110.886V122.356" stroke="#434343" stroke-miterlimit="10"/>
<path d="M183.581 110.886H187.509V122.356" stroke="#434343" stroke-miterlimit="10"/>
<path d="M187.509 110.886L196.892 95.2935V107.091" stroke="#434343" stroke-miterlimit="10"/>
<path d="M196.892 95.2935H200.018V105.387" stroke="#434343" stroke-miterlimit="10"/>
<path d="M200.018 95.2933L207.88 80.1172V91.8491" stroke="#434343" stroke-miterlimit="10"/>
<path d="M207.88 80.1172H210.306V91.5309" stroke="#434343" stroke-miterlimit="10"/>
<path d="M192.32 102.042V114.11" stroke="#434343" stroke-miterlimit="10"/>
<path d="M178.28 118.055V129.942" stroke="#434343" stroke-miterlimit="10"/>
<path d="M170.633 119.445V135.576" stroke="#434343" stroke-miterlimit="10"/>
<path d="M210.306 80.1172L215.387 61.0616L217.114 46.3628V35.52" stroke="#434343" stroke-miterlimit="10"/>
<path d="M198.231 105.121C198.296 104.746 200.415 100.216 202.314 96.2059C202.458 95.897 202.603 95.5928 202.743 95.2933C204.129 92.3685 205.295 90.0662 205.295 90.0662H208.118" stroke="#434343" stroke-miterlimit="10"/>
<path d="M204.745 91.0911H207.105" stroke="#434343" stroke-miterlimit="10"/>
<path d="M204.306 92.0225H206.896" stroke="#434343" stroke-miterlimit="10"/>
<path d="M203.625 92.9487H206.2" stroke="#434343" stroke-miterlimit="10"/>
<path d="M203.368 93.9829H205.925" stroke="#434343" stroke-miterlimit="10"/>
<path d="M205.215 95.0593H202.743" stroke="#434343" stroke-miterlimit="10"/>
<path d="M202.314 96.2012H204.646" stroke="#434343" stroke-miterlimit="10"/>
<path d="M201.95 96.978H204.161" stroke="#434343" stroke-miterlimit="10"/>
<path d="M201.478 97.9656H203.755" stroke="#434343" stroke-miterlimit="10"/>
<path d="M200.989 99.0137H203.756V88.0867" stroke="#434343" stroke-miterlimit="10"/>
<path d="M200.438 99.8936H202.919" stroke="#434343" stroke-miterlimit="10"/>
<path d="M200.209 100.68H202.616" stroke="#434343" stroke-miterlimit="10"/>
<path d="M199.304 102.64H201.678" stroke="#434343" stroke-miterlimit="10"/>
<path d="M198.931 103.464H201.412" stroke="#434343" stroke-miterlimit="10"/>
<path d="M198.576 104.255H200.778" stroke="#434343" stroke-miterlimit="10"/>
<path d="M211.398 86.842H207.88" stroke="#434343" stroke-miterlimit="10"/>
<path d="M209.868 84.6377H212.467" stroke="#434343" stroke-miterlimit="10"/>
<path d="M210.843 82.2512H213.035" stroke="#434343" stroke-miterlimit="10"/>
<path d="M211.617 80.3513H213.959" stroke="#434343" stroke-miterlimit="10"/>
<path d="M212.467 77.9365H214.654" stroke="#434343" stroke-miterlimit="10"/>
<path d="M213.358 76.0786L213.036 69.8687V82.4195" stroke="#434343" stroke-miterlimit="10"/>
<path d="M213.036 73.6357H217.888" stroke="#434343" stroke-miterlimit="10"/>
<path d="M213.036 71.4553H218.336" stroke="#434343" stroke-miterlimit="10"/>
<path d="M213.358 69.0686H218.924" stroke="#434343" stroke-miterlimit="10"/>
<path d="M213.708 67.1546C214.043 67.1265 219.33 67.1546 219.33 67.1546" stroke="#434343" stroke-miterlimit="10"/>
<path d="M215.462 64.8569H219.768" stroke="#434343" stroke-miterlimit="10"/>
<path d="M215.448 60.5518H220.678" stroke="#434343" stroke-miterlimit="10"/>
<path d="M215.462 58.165H221.136" stroke="#434343" stroke-miterlimit="10"/>
<path d="M215.686 56.2229H221.532" stroke="#434343" stroke-miterlimit="10"/>
<path d="M216.339 54.1919H221.938" stroke="#434343" stroke-miterlimit="10"/>
<path d="M216.339 51.6509H222.461" stroke="#434343" stroke-miterlimit="10"/>
<path d="M216.726 49.6807H222.801" stroke="#434343" stroke-miterlimit="10"/>
<path d="M216.927 47.9443H223.072" stroke="#434343" stroke-miterlimit="10"/>
<path d="M217.114 46.0679H223.273" stroke="#434343" stroke-miterlimit="10"/>
<path d="M205.08 42.6331H223.072" stroke="#434343" stroke-miterlimit="10"/>
<path d="M221.728 43.5876V55.5348" stroke="#434343" stroke-miterlimit="10"/>
<path d="M221.728 47.5L217.114 64.8569V76.1442" stroke="#434343" stroke-miterlimit="10"/>
<path d="M218.159 60.9353V72.9199" stroke="#434343" stroke-miterlimit="10"/>
<path d="M219.33 56.2229V67.1406" stroke="#434343" stroke-miterlimit="10"/>
<path d="M220.193 52.6384V62.2879" stroke="#434343" stroke-miterlimit="10"/>
<path d="M208.239 89.3175C208.258 89.2567 209.868 82.4197 209.868 82.4197L215.387 62.854H220.3" stroke="#434343" stroke-miterlimit="10"/>
<path d="M223.086 38.8799H205.458" stroke="#434343" stroke-miterlimit="10"/>
<path d="M218.299 35.4546H205.458" stroke="#434343" stroke-miterlimit="10"/>
<path d="M215.387 35.4546V47.7996H133.064" stroke="#434343" stroke-miterlimit="10"/>
<path d="M213.064 35.4546V47.7996" stroke="#434343" stroke-miterlimit="10"/>
<path d="M208.715 35.4546V47.7996" stroke="#434343" stroke-miterlimit="10"/>
<path d="M217.114 46.3628H205.458" stroke="#434343" stroke-miterlimit="10"/>
<path d="M205.458 34.687V36.2073" stroke="#434343" stroke-miterlimit="10"/>
<path d="M205.458 38.1172V39.6421" stroke="#434343" stroke-miterlimit="10"/>
</g>
<defs>
<clipPath id="clip0_385_3067">
<rect width="309.979" height="168" fill="white" transform="translate(0.0691757 0.000976562)"/>
</clipPath>
</defs>
</svg>
