<svg width="311" height="168" viewBox="0 0 311 168" fill="none" xmlns="http://www.w3.org/2000/svg">
<g clip-path="url(#clip0_385_3)">
<path d="M57.8436 24.8455H32.3476V26.7845H57.8436V24.8455Z" stroke="#434343" stroke-miterlimit="10"/>
<path d="M57.8436 26.7861H32.3476V28.7252H57.8436V26.7861Z" stroke="#434343" stroke-miterlimit="10"/>
<path d="M34.2941 21.748V31.8515" stroke="#434343" stroke-miterlimit="10"/>
<path d="M56.1018 21.748V31.8515" stroke="#434343" stroke-miterlimit="10"/>
<path d="M45.0965 16.9414V51.2217" stroke="#434343" stroke-miterlimit="10"/>
<path d="M35.5718 24.8455L37.4007 22.1819H52.9644L54.795 24.8455" stroke="#434343" stroke-miterlimit="10"/>
<path d="M34.2941 28.7253L36.7337 32.1136H53.7202L56.1018 28.7253" stroke="#434343" stroke-miterlimit="10"/>
<path d="M46.6354 34.9507H43.5576V38.0191H46.6354V34.9507Z" stroke="#434343" stroke-miterlimit="10"/>
<path d="M41.3791 36.4849H48.7251" stroke="#434343" stroke-miterlimit="10"/>
<path d="M119.609 24.8455H94.113V26.7845H119.609V24.8455Z" stroke="#434343" stroke-miterlimit="10"/>
<path d="M119.609 26.7861H94.113V28.7252H119.609V26.7861Z" stroke="#434343" stroke-miterlimit="10"/>
<path d="M96.0579 21.748V31.8515" stroke="#434343" stroke-miterlimit="10"/>
<path d="M117.866 21.748V31.8515" stroke="#434343" stroke-miterlimit="10"/>
<path d="M106.86 16.9414V52.3358" stroke="#434343" stroke-miterlimit="10"/>
<path d="M97.3356 24.8455L99.1644 22.1819H114.73L116.559 24.8455" stroke="#434343" stroke-miterlimit="10"/>
<path d="M96.0579 28.7253L98.4974 32.1136H115.484L117.866 28.7253" stroke="#434343" stroke-miterlimit="10"/>
<path d="M108.399 34.9507H105.321V38.0191H108.399V34.9507Z" stroke="#434343" stroke-miterlimit="10"/>
<path d="M103.143 36.4849H110.491" stroke="#434343" stroke-miterlimit="10"/>
<path d="M57.6337 141.217H32.1376V143.156H57.6337V141.217Z" stroke="#434343" stroke-miterlimit="10"/>
<path d="M57.6337 139.278H32.1376V141.217H57.6337V139.278Z" stroke="#434343" stroke-miterlimit="10"/>
<path d="M34.0826 146.255V136.152" stroke="#434343" stroke-miterlimit="10"/>
<path d="M55.8901 146.255V136.152" stroke="#434343" stroke-miterlimit="10"/>
<path d="M44.8848 151.061V116.782" stroke="#434343" stroke-miterlimit="10"/>
<path d="M35.3603 143.158L37.1908 145.822H52.7546L54.5834 143.158" stroke="#434343" stroke-miterlimit="10"/>
<path d="M34.0826 139.278L36.5221 135.89H53.5104L55.8903 139.278" stroke="#434343" stroke-miterlimit="10"/>
<path d="M46.4239 129.984H43.3461V133.053H46.4239V129.984Z" stroke="#434343" stroke-miterlimit="10"/>
<path d="M41.1693 131.519H48.5153" stroke="#434343" stroke-miterlimit="10"/>
<path d="M53.7203 32.1135V45.663H62.4311V122.429H53.7203C53.7203 122.429 50.9975 120.083 44.9651 120.083C38.9327 120.083 36.6893 122.427 36.6893 122.427H28.4357V45.663H36.7337V32.1135" stroke="#434343" stroke-miterlimit="10"/>
<path d="M36.7336 45.6631C36.7336 45.6631 39.8488 48.1464 45.0964 48.1464C50.3441 48.1464 53.7202 45.6631 53.7202 45.6631" stroke="#434343" stroke-miterlimit="10"/>
<path d="M28.4357 122.427C28.4357 122.427 25.8733 122.427 23.4917 122.427C21.1102 122.427 5.02264 117.173 5.02264 84.3148C5.02264 51.4564 20.7621 45.6631 23.4917 45.6631C26.2213 45.6631 28.4357 45.6631 28.4357 45.6631" stroke="#434343" stroke-miterlimit="10"/>
<path d="M0.145172 84.0442H309.925" stroke="#434343" stroke-miterlimit="10"/>
<path d="M57.9015 45.6631C57.9015 45.6631 57.8145 50.4699 58.6863 53.8564C59.5581 57.2429 60.2541 61.5871 57.2055 68.2751C54.1569 74.9631 53.6331 77.3087 53.7202 79.6526C53.8072 81.9981 55.8117 87.5567 55.8117 89.2934C55.8117 91.03 51.6303 100.497 51.6303 105.362C51.6303 110.227 57.5535 121.517 57.6405 122.429" stroke="#434343" stroke-miterlimit="10"/>
<path d="M36.5221 135.89V122.427" stroke="#434343" stroke-miterlimit="10"/>
<path d="M53.5103 135.89V122.427" stroke="#434343" stroke-miterlimit="10"/>
<path d="M62.431 45.6631L67.4705 40.6386V31.6646H71.6655V46.9031H62.431V45.6631Z" stroke="#434343" stroke-miterlimit="10"/>
<path d="M64.7409 46.9029L71.4898 40.1741" stroke="#434343" stroke-miterlimit="10"/>
<path d="M68.8779 46.9029L71.5992 44.1917" stroke="#434343" stroke-miterlimit="10"/>
<path d="M67.4705 40.6385L71.7371 36.3845" stroke="#434343" stroke-miterlimit="10"/>
<path d="M67.4705 36.3846L71.7457 32.1204" stroke="#434343" stroke-miterlimit="10"/>
<path d="M84.7334 45.6631L80.0863 41.0298V31.6646H75.4545V46.9031H84.7334V45.6631Z" stroke="#434343" stroke-miterlimit="10"/>
<path d="M81.596 46.903L75.5875 40.9124" stroke="#434343" stroke-miterlimit="10"/>
<path d="M80.0863 41.0298L75.6012 36.5564" stroke="#434343" stroke-miterlimit="10"/>
<path d="M80.0949 37.2232L75.5092 32.6528" stroke="#434343" stroke-miterlimit="10"/>
<path d="M80.0865 33.5321L78.2507 31.7002" stroke="#434343" stroke-miterlimit="10"/>
<path d="M85.0815 35.9202H61.2999" stroke="#434343" stroke-miterlimit="10"/>
<path d="M64.9867 34.9216H62.9837V36.9185H64.9867V34.9216Z" stroke="#434343" stroke-miterlimit="10"/>
<path d="M84.2678 34.9216H82.2648V36.9185H84.2678V34.9216Z" stroke="#434343" stroke-miterlimit="10"/>
<path d="M62.4327 122.426L67.4722 127.45V136.424H71.6672V121.186H62.4327V122.426Z" stroke="#434343" stroke-miterlimit="10"/>
<path d="M64.7426 121.186L71.4915 127.914" stroke="#434343" stroke-miterlimit="10"/>
<path d="M68.8796 121.186L71.6009 123.897" stroke="#434343" stroke-miterlimit="10"/>
<path d="M67.4723 127.45L71.739 131.704" stroke="#434343" stroke-miterlimit="10"/>
<path d="M67.4723 131.704L71.7475 135.968" stroke="#434343" stroke-miterlimit="10"/>
<path d="M84.7351 122.426L80.088 127.059V136.424H75.4562V121.186H84.7351V122.426Z" stroke="#434343" stroke-miterlimit="10"/>
<path d="M81.5977 121.186L75.5892 127.176" stroke="#434343" stroke-miterlimit="10"/>
<path d="M80.088 127.059L75.6029 131.532" stroke="#434343" stroke-miterlimit="10"/>
<path d="M80.0966 130.865L75.5109 135.436" stroke="#434343" stroke-miterlimit="10"/>
<path d="M80.0882 134.556L78.2524 136.388" stroke="#434343" stroke-miterlimit="10"/>
<path d="M85.0832 132.168H61.3016" stroke="#434343" stroke-miterlimit="10"/>
<path d="M64.9884 131.17H62.9854V133.167H64.9884V131.17Z" stroke="#434343" stroke-miterlimit="10"/>
<path d="M84.2695 131.17H82.2665V133.167H84.2695V131.17Z" stroke="#434343" stroke-miterlimit="10"/>
<path d="M71.6655 43.0862H75.4545V46.903H77.111V121.186H75.5893V124.904H71.6007V121.186H69.6047V46.903H71.6655V43.0862Z" stroke="#434343" stroke-miterlimit="10"/>
<path d="M75.4545 43.0862L69.591 48.9339" stroke="#434343" stroke-miterlimit="10"/>
<path d="M75.405 45.959L69.5842 51.7642" stroke="#434343" stroke-miterlimit="10"/>
<path d="M76.8483 46.9031L69.6047 54.1388" stroke="#434343" stroke-miterlimit="10"/>
<path d="M76.8483 49.4917L69.6115 56.707" stroke="#434343" stroke-miterlimit="10"/>
<path d="M77.111 51.9888L69.579 59.4966" stroke="#434343" stroke-miterlimit="10"/>
<path d="M77.111 54.7886L69.6047 62.2726" stroke="#434343" stroke-miterlimit="10"/>
<path d="M77.1111 57.5251L69.5604 65.0517" stroke="#434343" stroke-miterlimit="10"/>
<path d="M77.1111 60.0869L69.6115 67.5642" stroke="#434343" stroke-miterlimit="10"/>
<path d="M77.111 62.9324L69.5927 70.4266" stroke="#434343" stroke-miterlimit="10"/>
<path d="M77.111 65.3394L69.5944 72.8319" stroke="#434343" stroke-miterlimit="10"/>
<path d="M77.111 68.1865L69.5091 75.7658" stroke="#434343" stroke-miterlimit="10"/>
<path d="M77.1111 70.7703L69.5501 78.3087" stroke="#434343" stroke-miterlimit="10"/>
<path d="M77.1111 73.4204L69.5638 80.9453" stroke="#434343" stroke-miterlimit="10"/>
<path d="M77.1111 75.9819L69.574 83.4966" stroke="#434343" stroke-miterlimit="10"/>
<path d="M77.1111 78.8701L69.5569 86.4001" stroke="#434343" stroke-miterlimit="10"/>
<path d="M77.1111 81.6052L69.6183 89.0757" stroke="#434343" stroke-miterlimit="10"/>
<path d="M77.1111 84.0442L69.5604 91.5725" stroke="#434343" stroke-miterlimit="10"/>
<path d="M77.111 86.7522L69.579 94.26" stroke="#434343" stroke-miterlimit="10"/>
<path d="M77.0018 89.5706L69.5961 96.9542" stroke="#434343" stroke-miterlimit="10"/>
<path d="M77.0019 92.1797L69.5416 99.6178" stroke="#434343" stroke-miterlimit="10"/>
<path d="M77.1111 94.7856L69.6235 102.251" stroke="#434343" stroke-miterlimit="10"/>
<path d="M77.0019 97.7827L69.6423 105.12" stroke="#434343" stroke-miterlimit="10"/>
<path d="M77.0019 100.258L69.632 107.606" stroke="#434343" stroke-miterlimit="10"/>
<path d="M77.0019 103.125L69.5535 110.55" stroke="#434343" stroke-miterlimit="10"/>
<path d="M77.0019 105.535L69.6115 112.902" stroke="#434343" stroke-miterlimit="10"/>
<path d="M77.1111 108.379L69.6883 115.78" stroke="#434343" stroke-miterlimit="10"/>
<path d="M77.1111 110.876L69.6081 118.355" stroke="#434343" stroke-miterlimit="10"/>
<path d="M77.0018 113.764L69.5825 121.162" stroke="#434343" stroke-miterlimit="10"/>
<path d="M77.0019 116.37L71.7202 121.635" stroke="#434343" stroke-miterlimit="10"/>
<path d="M77.0019 119.003L71.6246 124.363" stroke="#434343" stroke-miterlimit="10"/>
<path d="M75.4563 123.296L73.8884 124.861" stroke="#434343" stroke-miterlimit="10"/>
<path d="M75.4545 44.9963L77.3841 46.9201" stroke="#434343" stroke-miterlimit="10"/>
<path d="M78.7218 121.162L75.5569 124.317" stroke="#434343" stroke-miterlimit="10"/>
<path d="M91.0917 62.5701H69.6183" stroke="#434343" stroke-miterlimit="10"/>
<path d="M91.0917 69.9233H69.6183" stroke="#434343" stroke-miterlimit="10"/>
<path d="M91.0917 77.625H69.6183" stroke="#434343" stroke-miterlimit="10"/>
<path d="M120.102 81.6052H77.111" stroke="#434343" stroke-miterlimit="10"/>
<path d="M120.102 86.1177H77.111" stroke="#434343" stroke-miterlimit="10"/>
<path d="M143.826 81.6052H122.627" stroke="#434343" stroke-miterlimit="10"/>
<path d="M143.826 86.1177H122.627" stroke="#434343" stroke-miterlimit="10"/>
<path d="M177.742 81.6052H146.439" stroke="#434343" stroke-miterlimit="10"/>
<path d="M177.742 86.1177H146.439" stroke="#434343" stroke-miterlimit="10"/>
<path d="M91.0917 90.6287H69.6183" stroke="#434343" stroke-miterlimit="10"/>
<path d="M91.0917 98.082H69.6183" stroke="#434343" stroke-miterlimit="10"/>
<path d="M91.0917 105.535H69.6183" stroke="#434343" stroke-miterlimit="10"/>
<path d="M144.493 62.5701H123.238" stroke="#434343" stroke-miterlimit="10"/>
<path d="M144.493 69.9233H123.238" stroke="#434343" stroke-miterlimit="10"/>
<path d="M144.493 77.625H123.238" stroke="#434343" stroke-miterlimit="10"/>
<path d="M144.493 90.6287H123.238" stroke="#434343" stroke-miterlimit="10"/>
<path d="M144.493 98.082H123.238" stroke="#434343" stroke-miterlimit="10"/>
<path d="M144.493 105.535H123.238" stroke="#434343" stroke-miterlimit="10"/>
<path d="M198.997 62.5701H177.742" stroke="#434343" stroke-miterlimit="10"/>
<path d="M198.301 69.9233H177.045" stroke="#434343" stroke-miterlimit="10"/>
<path d="M202.367 77.625H181.11" stroke="#434343" stroke-miterlimit="10"/>
<path d="M202.367 90.6287H181.11" stroke="#434343" stroke-miterlimit="10"/>
<path d="M198.301 98.082H177.045" stroke="#434343" stroke-miterlimit="10"/>
<path d="M198.301 105.535H177.045" stroke="#434343" stroke-miterlimit="10"/>
<path d="M84.7334 62.5702V45.6631H98.6065V47.631H86.4462V62.5702H84.7334Z" stroke="#434343" stroke-miterlimit="10"/>
<path d="M98.4974 32.1135V47.631C98.4974 47.631 102.418 50.1212 106.86 50.1212C111.303 50.1212 115.31 47.3844 115.31 47.3844V32.1135H98.4974Z" stroke="#434343" stroke-miterlimit="10"/>
<path d="M98.4974 44.1713H100.761V32.1135" stroke="#434343" stroke-miterlimit="10"/>
<path d="M115.092 44.1713H113.176V32.1135" stroke="#434343" stroke-miterlimit="10"/>
<path d="M116.137 52.249H97.786V54.7681H116.137V52.249Z" stroke="#434343" stroke-miterlimit="10"/>
<path d="M178.28 47.6889H115.31V45.6631H178.933L178.28 47.6889Z" stroke="#434343" stroke-miterlimit="10"/>
<path d="M86.6782 105.535H84.7351V122.541H171.935L172.573 120.357H86.6782V105.535Z" stroke="#434343" stroke-miterlimit="10"/>
<path d="M122.629 50.9309H120.102V102.957H122.629V50.9309Z" stroke="#434343" stroke-miterlimit="10"/>
<path d="M120.102 52.0024H122.627" stroke="#434343" stroke-miterlimit="10"/>
<path d="M120.102 53.6233H122.627" stroke="#434343" stroke-miterlimit="10"/>
<path d="M120.102 55.5642H122.627" stroke="#434343" stroke-miterlimit="10"/>
<path d="M120.102 57.2292H122.627" stroke="#434343" stroke-miterlimit="10"/>
<path d="M120.102 59.1106H122.627" stroke="#434343" stroke-miterlimit="10"/>
<path d="M120.102 61.1074H122.627" stroke="#434343" stroke-miterlimit="10"/>
<path d="M120.102 62.9902H122.627" stroke="#434343" stroke-miterlimit="10"/>
<path d="M120.102 64.9583H122.627" stroke="#434343" stroke-miterlimit="10"/>
<path d="M120.102 66.9194H122.627" stroke="#434343" stroke-miterlimit="10"/>
<path d="M120.102 68.5779H122.627" stroke="#434343" stroke-miterlimit="10"/>
<path d="M120.102 70.3435H122.627" stroke="#434343" stroke-miterlimit="10"/>
<path d="M120.102 72.2551H122.627" stroke="#434343" stroke-miterlimit="10"/>
<path d="M120.102 74.2231H122.627" stroke="#434343" stroke-miterlimit="10"/>
<path d="M120.102 76.1196H122.627" stroke="#434343" stroke-miterlimit="10"/>
<path d="M120.102 78.0588H122.627" stroke="#434343" stroke-miterlimit="10"/>
<path d="M120.102 79.9707H122.627" stroke="#434343" stroke-miterlimit="10"/>
<path d="M120.102 81.925H122.627" stroke="#434343" stroke-miterlimit="10"/>
<path d="M120.102 85.7759H122.627" stroke="#434343" stroke-miterlimit="10"/>
<path d="M120.102 87.686H122.627" stroke="#434343" stroke-miterlimit="10"/>
<path d="M120.102 89.5962H122.627" stroke="#434343" stroke-miterlimit="10"/>
<path d="M120.102 91.5078H122.627" stroke="#434343" stroke-miterlimit="10"/>
<path d="M120.102 93.418H122.627" stroke="#434343" stroke-miterlimit="10"/>
<path d="M120.102 95.3298H122.627" stroke="#434343" stroke-miterlimit="10"/>
<path d="M120.102 97.24H122.627" stroke="#434343" stroke-miterlimit="10"/>
<path d="M120.102 99.1501H122.627" stroke="#434343" stroke-miterlimit="10"/>
<path d="M120.102 101.062H122.627" stroke="#434343" stroke-miterlimit="10"/>
<path d="M146.381 64.4377H143.855V116.464H146.381V64.4377Z" stroke="#434343" stroke-miterlimit="10"/>
<path d="M143.855 65.5093H146.381" stroke="#434343" stroke-miterlimit="10"/>
<path d="M143.855 67.1304H146.381" stroke="#434343" stroke-miterlimit="10"/>
<path d="M143.855 69.0693H146.381" stroke="#434343" stroke-miterlimit="10"/>
<path d="M143.855 70.7346H146.381" stroke="#434343" stroke-miterlimit="10"/>
<path d="M143.855 72.6157H146.381" stroke="#434343" stroke-miterlimit="10"/>
<path d="M143.855 74.6145H146.381" stroke="#434343" stroke-miterlimit="10"/>
<path d="M143.855 76.4956H146.381" stroke="#434343" stroke-miterlimit="10"/>
<path d="M143.855 78.4653H146.381" stroke="#434343" stroke-miterlimit="10"/>
<path d="M143.855 80.4265H146.381" stroke="#434343" stroke-miterlimit="10"/>
<path d="M143.855 82.0833H146.381" stroke="#434343" stroke-miterlimit="10"/>
<path d="M143.855 83.8503H146.381" stroke="#434343" stroke-miterlimit="10"/>
<path d="M143.855 85.7605H146.381" stroke="#434343" stroke-miterlimit="10"/>
<path d="M143.855 87.7285H146.381" stroke="#434343" stroke-miterlimit="10"/>
<path d="M143.855 89.625H146.381" stroke="#434343" stroke-miterlimit="10"/>
<path d="M143.855 91.5657H146.381" stroke="#434343" stroke-miterlimit="10"/>
<path d="M143.855 93.4758H146.381" stroke="#434343" stroke-miterlimit="10"/>
<path d="M143.855 95.4302H146.381" stroke="#434343" stroke-miterlimit="10"/>
<path d="M143.855 99.281H146.381" stroke="#434343" stroke-miterlimit="10"/>
<path d="M143.855 101.191H146.381" stroke="#434343" stroke-miterlimit="10"/>
<path d="M143.855 103.103H146.381" stroke="#434343" stroke-miterlimit="10"/>
<path d="M143.855 105.013H146.381" stroke="#434343" stroke-miterlimit="10"/>
<path d="M143.855 106.925H146.381" stroke="#434343" stroke-miterlimit="10"/>
<path d="M143.855 108.835H146.381" stroke="#434343" stroke-miterlimit="10"/>
<path d="M143.855 110.745H146.381" stroke="#434343" stroke-miterlimit="10"/>
<path d="M143.855 112.657H146.381" stroke="#434343" stroke-miterlimit="10"/>
<path d="M143.855 114.567H146.381" stroke="#434343" stroke-miterlimit="10"/>
<path d="M193.306 64.0754H190.78V116.101H193.306V64.0754Z" stroke="#434343" stroke-miterlimit="10"/>
<path d="M190.78 65.147H193.306" stroke="#434343" stroke-miterlimit="10"/>
<path d="M190.78 66.7681H193.306" stroke="#434343" stroke-miterlimit="10"/>
<path d="M190.78 68.707H193.306" stroke="#434343" stroke-miterlimit="10"/>
<path d="M190.78 70.3723H193.306" stroke="#434343" stroke-miterlimit="10"/>
<path d="M190.78 72.2551H193.306" stroke="#434343" stroke-miterlimit="10"/>
<path d="M190.78 74.2522H193.306" stroke="#434343" stroke-miterlimit="10"/>
<path d="M190.78 76.1333H193.306" stroke="#434343" stroke-miterlimit="10"/>
<path d="M190.78 78.103H193.306" stroke="#434343" stroke-miterlimit="10"/>
<path d="M190.78 80.0642H193.306" stroke="#434343" stroke-miterlimit="10"/>
<path d="M190.78 81.7227H193.306" stroke="#434343" stroke-miterlimit="10"/>
<path d="M190.78 83.488H193.306" stroke="#434343" stroke-miterlimit="10"/>
<path d="M190.78 85.3982H193.306" stroke="#434343" stroke-miterlimit="10"/>
<path d="M190.78 87.3679H193.306" stroke="#434343" stroke-miterlimit="10"/>
<path d="M190.78 89.2644H193.306" stroke="#434343" stroke-miterlimit="10"/>
<path d="M190.78 91.2034H193.306" stroke="#434343" stroke-miterlimit="10"/>
<path d="M190.78 93.1135H193.306" stroke="#434343" stroke-miterlimit="10"/>
<path d="M190.78 95.0679H193.306" stroke="#434343" stroke-miterlimit="10"/>
<path d="M190.78 98.9189H193.306" stroke="#434343" stroke-miterlimit="10"/>
<path d="M190.78 100.831H193.306" stroke="#434343" stroke-miterlimit="10"/>
<path d="M190.78 102.741H193.306" stroke="#434343" stroke-miterlimit="10"/>
<path d="M190.78 104.651H193.306" stroke="#434343" stroke-miterlimit="10"/>
<path d="M190.78 106.563H193.306" stroke="#434343" stroke-miterlimit="10"/>
<path d="M190.78 108.473H193.306" stroke="#434343" stroke-miterlimit="10"/>
<path d="M190.78 110.385H193.306" stroke="#434343" stroke-miterlimit="10"/>
<path d="M190.78 112.295H193.306" stroke="#434343" stroke-miterlimit="10"/>
<path d="M190.78 114.205H193.306" stroke="#434343" stroke-miterlimit="10"/>
<path d="M134.607 47.689V120.357" stroke="#434343" stroke-miterlimit="10"/>
<path d="M134.591 47.6191L136.215 55.2171H133.168L134.591 47.6191Z" fill="#434343"/>
<path d="M134.591 120.585L136.215 112.987H133.168L134.591 120.585Z" fill="#434343"/>
<path d="M156.472 47.689V120.357" stroke="#434343" stroke-miterlimit="10"/>
<path d="M156.457 45.6631L158.081 53.2594H155.034L156.457 45.6631Z" fill="#434343"/>
<path d="M156.457 122.427L158.081 114.831H155.034L156.457 122.427Z" fill="#434343"/>
<path d="M139.412 122.541H116.124V124.991H139.412V122.541Z" stroke="#434343" stroke-miterlimit="10"/>
<path d="M117.676 122.541V124.991" stroke="#434343" stroke-miterlimit="10"/>
<path d="M119.594 122.541V124.991" stroke="#434343" stroke-miterlimit="10"/>
<path d="M121.568 122.541V124.991" stroke="#434343" stroke-miterlimit="10"/>
<path d="M123.543 122.541V124.991" stroke="#434343" stroke-miterlimit="10"/>
<path d="M125.445 122.541V124.991" stroke="#434343" stroke-miterlimit="10"/>
<path d="M127.638 122.541V124.991" stroke="#434343" stroke-miterlimit="10"/>
<path d="M129.306 122.541V124.991" stroke="#434343" stroke-miterlimit="10"/>
<path d="M130.976 122.541V124.991" stroke="#434343" stroke-miterlimit="10"/>
<path d="M132.805 122.541V124.991" stroke="#434343" stroke-miterlimit="10"/>
<path d="M134.692 122.541V124.991" stroke="#434343" stroke-miterlimit="10"/>
<path d="M136.712 122.541V124.991" stroke="#434343" stroke-miterlimit="10"/>
<path d="M138.556 122.541V124.991" stroke="#434343" stroke-miterlimit="10"/>
<path d="M137.002 145.662H118.533V147.659H137.002V145.662Z" stroke="#434343" stroke-miterlimit="10"/>
<path d="M137.002 124.99H118.533V145.662H137.002V124.99Z" stroke="#434343" stroke-miterlimit="10"/>
<path d="M119.594 145.662V147.659" stroke="#434343" stroke-miterlimit="10"/>
<path d="M121.568 145.662V147.659" stroke="#434343" stroke-miterlimit="10"/>
<path d="M123.543 145.662V147.659" stroke="#434343" stroke-miterlimit="10"/>
<path d="M125.445 145.662V147.659" stroke="#434343" stroke-miterlimit="10"/>
<path d="M127.638 145.662V147.659" stroke="#434343" stroke-miterlimit="10"/>
<path d="M129.306 145.662V147.659" stroke="#434343" stroke-miterlimit="10"/>
<path d="M130.976 145.662V147.659" stroke="#434343" stroke-miterlimit="10"/>
<path d="M132.805 145.662V147.659" stroke="#434343" stroke-miterlimit="10"/>
<path d="M134.692 145.662V147.659" stroke="#434343" stroke-miterlimit="10"/>
<path d="M136.712 145.662V147.659" stroke="#434343" stroke-miterlimit="10"/>
<path d="M127.638 122.541V150.613" stroke="#434343" stroke-miterlimit="10"/>
<path d="M201.568 122.541H178.28V124.991H201.568V122.541Z" stroke="#434343" stroke-miterlimit="10"/>
<path d="M179.832 122.541V124.991" stroke="#434343" stroke-miterlimit="10"/>
<path d="M181.75 122.541V124.991" stroke="#434343" stroke-miterlimit="10"/>
<path d="M183.724 122.541V124.991" stroke="#434343" stroke-miterlimit="10"/>
<path d="M185.699 122.541V124.991" stroke="#434343" stroke-miterlimit="10"/>
<path d="M187.601 122.541V124.991" stroke="#434343" stroke-miterlimit="10"/>
<path d="M189.794 122.541V124.991" stroke="#434343" stroke-miterlimit="10"/>
<path d="M191.462 122.541V124.991" stroke="#434343" stroke-miterlimit="10"/>
<path d="M193.132 122.541V124.991" stroke="#434343" stroke-miterlimit="10"/>
<path d="M194.961 122.541V124.991" stroke="#434343" stroke-miterlimit="10"/>
<path d="M196.848 122.541V124.991" stroke="#434343" stroke-miterlimit="10"/>
<path d="M198.868 122.541V124.991" stroke="#434343" stroke-miterlimit="10"/>
<path d="M200.712 122.541V124.991" stroke="#434343" stroke-miterlimit="10"/>
<path d="M199.16 145.662H180.69V147.659H199.16V145.662Z" stroke="#434343" stroke-miterlimit="10"/>
<path d="M199.16 124.99H180.69V145.662H199.16V124.99Z" stroke="#434343" stroke-miterlimit="10"/>
<path d="M181.75 145.662V147.659" stroke="#434343" stroke-miterlimit="10"/>
<path d="M183.724 145.662V147.659" stroke="#434343" stroke-miterlimit="10"/>
<path d="M185.699 145.662V147.659" stroke="#434343" stroke-miterlimit="10"/>
<path d="M187.601 145.662V147.659" stroke="#434343" stroke-miterlimit="10"/>
<path d="M189.794 145.662V147.659" stroke="#434343" stroke-miterlimit="10"/>
<path d="M191.462 145.662V147.659" stroke="#434343" stroke-miterlimit="10"/>
<path d="M193.132 145.662V147.659" stroke="#434343" stroke-miterlimit="10"/>
<path d="M194.961 145.662V147.659" stroke="#434343" stroke-miterlimit="10"/>
<path d="M196.848 145.662V147.659" stroke="#434343" stroke-miterlimit="10"/>
<path d="M198.868 145.662V147.659" stroke="#434343" stroke-miterlimit="10"/>
<path d="M189.794 122.541V150.613" stroke="#434343" stroke-miterlimit="10"/>
<path d="M178.933 45.6631C178.933 45.6631 173.329 58.6054 173.329 64.4378C173.329 70.2703 177.743 76.0619 177.743 83.8504C177.743 91.6389 173.677 99.9768 173.677 103.103C173.677 106.229 174.636 107.793 174.636 110.747C174.636 113.702 171.935 122.543 171.935 122.543" stroke="#434343" stroke-miterlimit="10"/>
<path d="M182.182 47.6889H207.418L208.464 45.6631H183.023C183.023 45.6631 177.418 58.6054 177.418 64.4378C177.418 70.2703 181.832 76.0619 181.832 83.8504C181.832 91.6389 177.766 99.9768 177.766 103.103C177.766 106.229 178.725 107.793 178.725 110.747C178.725 113.702 176.025 122.543 176.025 122.543H217.583" stroke="#434343" stroke-miterlimit="10"/>
<path d="M176.668 120.34H207.867L207.13 122.541C207.13 122.541 210.963 111.788 210.731 106.563C210.499 101.338 208.292 89.9007 208.699 84.0461C209.105 78.1898 211.835 66.9144 211.719 65.1472C211.603 63.3816 211.371 59.9645 209.395 57.5322C207.422 55.0999 206.666 52.6097 206.666 51.1044C206.666 49.5991 207.422 47.6873 207.422 47.6873" stroke="#434343" stroke-miterlimit="10"/>
<path d="M217.583 122.541C217.583 122.541 220.834 120.01 225.771 120.01C230.708 120.01 234.366 122.541 234.366 122.541V135.876H217.583V122.541Z" stroke="#434343" stroke-miterlimit="10"/>
<path d="M217.583 135.876L215.143 139.147H236.616L234.366 135.876H217.583Z" stroke="#434343" stroke-miterlimit="10"/>
<path d="M238.621 139.147H213.14V141.275H238.621V139.147Z" stroke="#434343" stroke-miterlimit="10"/>
<path d="M238.621 141.059H213.14V143.187H238.621V141.059Z" stroke="#434343" stroke-miterlimit="10"/>
<path d="M216.32 143.187L217.931 145.706H234.134L235.354 143.187H216.32Z" stroke="#434343" stroke-miterlimit="10"/>
<path d="M215.143 136.195V146.096" stroke="#434343" stroke-miterlimit="10"/>
<path d="M236.616 136.195V146.096" stroke="#434343" stroke-miterlimit="10"/>
<path d="M225.836 150.613V116.826" stroke="#434343" stroke-miterlimit="10"/>
<path d="M221.725 131.551H229.956" stroke="#434343" stroke-miterlimit="10"/>
<path d="M227.565 129.898H224.246V133.206H227.565V129.898Z" stroke="#434343" stroke-miterlimit="10"/>
<path d="M234.366 122.541H284.487C284.487 122.541 303.478 120.575 303.478 84.046C303.478 47.5171 284.487 45.6631 284.487 45.6631H208.464" stroke="#434343" stroke-miterlimit="10"/>
<path d="M279.913 45.6631V64.0755" stroke="#434343" stroke-miterlimit="10"/>
<path d="M279.913 104.015V122.427" stroke="#434343" stroke-miterlimit="10"/>
<path d="M298.424 81.129C298.424 81.129 299.122 77.1336 293.982 71.6617C288.842 66.1899 286.752 57.4182 279.172 57.4182C271.593 57.4182 270.286 60.6313 265.147 60.6313C260.009 60.6313 255.565 60.718 255.565 60.718C255.565 60.718 256.437 68.3619 256.437 70.4456C256.437 72.5309 255.739 85.5582 253.736 88.9464C251.733 92.333 250.861 97.4579 253.301 103.452C255.74 109.446 259.661 113.353 264.712 113.224C269.765 113.093 284.486 111.269 288.757 106.58C293.025 101.89 296.466 97.1126 296.684 92.3364C296.976 85.9018 298.598 85.298 298.424 81.129Z" stroke="#434343" stroke-miterlimit="10"/>
<path d="M286.228 68.1865C286.228 68.1865 281.088 62.6279 274.73 62.6279C268.37 62.6279 255.775 62.6279 255.775 62.6279" stroke="#434343" stroke-miterlimit="10"/>
<path d="M269.851 69.9233H256.423" stroke="#434343" stroke-miterlimit="10"/>
<path d="M256.008 77.4736H271.68C271.68 77.4736 276.296 78.7119 276.296 84.046C276.296 89.3801 271.001 90.683 271.001 90.683H252.876" stroke="#434343" stroke-miterlimit="10"/>
<path d="M251.817 97.9781H272.814C272.814 97.9781 284.488 96.5153 284.488 84.0459" stroke="#434343" stroke-miterlimit="10"/>
<path d="M288.842 97.0222C288.842 97.0222 282.395 105.447 273.858 105.447C265.321 105.447 254.208 105.447 254.208 105.447" stroke="#434343" stroke-miterlimit="10"/>
</g>
<defs>
<clipPath id="clip0_385_3">
<rect width="309.979" height="168" fill="white" transform="translate(0.0453796 0.000976562)"/>
</clipPath>
</defs>
</svg>
