<svg width="20" height="21" viewBox="0 0 20 21" fill="none" xmlns="http://www.w3.org/2000/svg">
<g clip-path="url(#clip0_281_3501)">
<path d="M9.80661 0.779297C6.24925 0.779297 3.35498 3.67258 3.35498 7.22874C3.35498 8.29629 3.62198 9.35478 4.12955 10.2936L9.4538 19.9197C9.52468 20.0481 9.65974 20.1276 9.80661 20.1276C9.95347 20.1276 10.0885 20.0481 10.1594 19.9197L15.4856 10.2904C15.9912 9.35478 16.2582 8.29625 16.2582 7.2287C16.2582 3.67258 13.364 0.779297 9.80661 0.779297ZM9.80661 10.4534C8.02793 10.4534 6.58081 9.00681 6.58081 7.22874C6.58081 5.45066 8.02793 4.00403 9.80661 4.00403C11.5853 4.00403 13.0324 5.45066 13.0324 7.22874C13.0324 9.00681 11.5853 10.4534 9.80661 10.4534Z" fill="#118BDD"/>
</g>
<defs>
<clipPath id="clip0_281_3501">
<rect width="19.3548" height="19.3483" fill="white" transform="translate(0.129395 0.779297)"/>
</clipPath>
</defs>
</svg>
