<?xml version="1.0" encoding="utf-8"?>
<!-- Generator: Adobe Illustrator 25.3.1, SVG Export Plug-In . SVG Version: 6.00 Build 0)  -->
<svg version="1.1" id="Слой_1" xmlns="http://www.w3.org/2000/svg" xmlns:xlink="http://www.w3.org/1999/xlink" x="0px" y="0px"
	 viewBox="0 0 151 81" style="enable-background:new 0 0 151 81;" xml:space="preserve">
<style type="text/css">
	.st0{clip-path:url(#SVGID_2_);}
	.st1{fill:none;stroke:#118BDD;stroke-miterlimit:10;}
	.st2{fill:none;stroke:#118BDD;stroke-linejoin:bevel;stroke-miterlimit:10;}
	.st3{fill:none;stroke:#118BDD;stroke-linecap:square;stroke-linejoin:round;stroke-miterlimit:10;}
	.st4{fill:none;stroke:#118BDD;stroke-linecap:square;stroke-miterlimit:10;}
	.st5{fill:#FFFFFF;}
	.st6{fill:#161616;}
	.st7{fill:#118BDD;}
	.st8{fill:#FDF015;}
</style>
<g>
	<defs>
		<rect id="SVGID_1_" x="0.1" y="0.3" width="150.1" height="79.1"/>
	</defs>
	<clipPath id="SVGID_2_">
		<use xlink:href="#SVGID_1_"  style="overflow:visible;"/>
	</clipPath>
	<g class="st0">
		<path class="st1" d="M38.9,3.3h-4V4h4V3.3z"/>
		<path class="st1" d="M39.7,4h-5.6v0.7h5.6V4z"/>
		<path class="st1" d="M38.9,4.6h-4v2.3h4V4.6z"/>
		<path class="st1" d="M38.9,6.9h-4v0.7h4V6.9z"/>
		<path class="st1" d="M40.2,7.6h-6.6v0.7h6.6V7.6z"/>
		<path class="st1" d="M40.2,8.3h-6.6v0.7h6.6V8.3z"/>
		<path class="st1" d="M40.2,9.1h-6.6v3.1h6.6V9.1z"/>
		<path class="st1" d="M40.2,12.2h-6.6v0.7h6.6V12.2z"/>
		<path class="st1" d="M50.5,12.9H20.8v1h29.7V12.9z"/>
		<path class="st1" d="M88.6,38.9H46V40h42.6V38.9z"/>
		<path class="st1" d="M25.6,38.9H7.4V40h18.2V38.9z"/>
		<path class="st1" d="M132.9,76.3H7.4v1.2h125.4V76.3z"/>
		<path class="st1" d="M25.6,13.9h-4.8v1h4.8V13.9z"/>
		<path class="st1" d="M50.5,13.9H46v1h4.5V13.9z"/>
		<path class="st1" d="M32.9,12.5h-3.1v0.5h3.1V12.5z"/>
		<path class="st1" d="M32.1,13.9h-1.6v0.5h1.6V13.9z"/>
		<path class="st1" d="M32.6,14.6h-2.5v0.7h2.5V14.6z"/>
		<path class="st1" d="M32,11.9h-1.3v1.1H32V11.9z"/>
		<path class="st1" d="M36.9,0.5v7.9"/>
		<path class="st1" d="M36.9,10.1v1.2"/>
		<path class="st1" d="M31.4,10.4v6.2"/>
		<path class="st1" d="M36.9,12.8v7"/>
		<path class="st1" d="M31.4,18.1v1.2"/>
		<path class="st1" d="M30.4,15.4v53.8c0,0,1.1,1.7,2.1,2h0.8"/>
		<path class="st1" d="M32.4,15.4v53.5c0,0,0.3,0.4,0.6,0.6h0.3"/>
		<path class="st1" d="M35.2,13.9v54.6"/>
		<path class="st1" d="M38.7,13.9v54.6"/>
		<path class="st1" d="M31.4,20.8v6.5"/>
		<path class="st1" d="M31.4,28.6v1.2"/>
		<path class="st1" d="M31.4,31.2v6.5"/>
		<path class="st1" d="M31.4,38.9v1.2"/>
		<path class="st1" d="M31.4,41.6v6.5"/>
		<path class="st1" d="M31.4,49.3v1.2"/>
		<path class="st1" d="M31.4,52v6.5"/>
		<path class="st1" d="M31.4,59.7v1.2"/>
		<path class="st1" d="M36.9,21.3v1.3"/>
		<path class="st1" d="M36.9,24.1V31"/>
		<path class="st1" d="M36.9,32.4v1.2"/>
		<path class="st1" d="M36.9,34.8v7.2"/>
		<path class="st1" d="M36.9,43.3v1.3"/>
		<path class="st1" d="M36.9,46v7"/>
		<path class="st1" d="M36.9,54.4v1.2"/>
		<path class="st1" d="M36.9,57.1v7"/>
		<path class="st1" d="M36.9,68.2v7"/>
		<path class="st1" d="M36.9,65.6v1.2"/>
		<path class="st1" d="M31.4,62.4V69c0,0,0.8,1,1.2,1.2h0.8"/>
		<path class="st1" d="M21.7,13.9l1-1"/>
		<path class="st1" d="M23.6,13.9l1-1"/>
		<path class="st1" d="M24.6,14.9l-1-1"/>
		<path class="st1" d="M22.7,14.9l-1-1"/>
		<path class="st1" d="M25.6,13.9l1-1"/>
		<path class="st1" d="M25.6,16.4l1-1"/>
		<path class="st1" d="M25.6,18.9l1-1"/>
		<path class="st1" d="M25.6,21.5l1-1"/>
		<path class="st1" d="M25.6,29l1-1"/>
		<path class="st1" d="M25.6,31.5l1-1"/>
		<path class="st1" d="M25.6,34.1l1-1"/>
		<path class="st1" d="M25.6,36.6l1-1"/>
		<path class="st1" d="M25.6,39.1l1-1"/>
		<path class="st1" d="M27.6,13.9l1-1"/>
		<path class="st1" d="M29.5,13.9l1-1"/>
		<path class="st1" d="M31.5,13.9l1-1"/>
		<path class="st1" d="M33.5,13.9l1-1"/>
		<path class="st1" d="M35.4,13.9l1-1"/>
		<path class="st1" d="M37.4,13.9l1-1"/>
		<path class="st1" d="M39.3,13.9l1-1"/>
		<path class="st1" d="M41.3,13.9l1-1"/>
		<path class="st1" d="M43.3,13.9l1-1"/>
		<path class="st1" d="M45.2,13.9l1-1"/>
		<path class="st1" d="M47.2,13.9l1-1"/>
		<path class="st1" d="M49.2,13.9l1-1"/>
		<path class="st1" d="M47.2,13.9l1,1"/>
		<path class="st1" d="M49.2,13.9l1,1"/>
		<path class="st1" d="M26.6,13.9h-1v9.6h1V13.9z"/>
		<path class="st1" d="M45,15.5l1-1"/>
		<path class="st1" d="M45,18l1-1"/>
		<path class="st1" d="M45,20.5l1-1"/>
		<path class="st1" d="M45,23l1-1"/>
		<path class="st1" d="M45,25.6l1-1"/>
		<path class="st1" d="M45,28.1l1-1"/>
		<path class="st1" d="M45,33.1l1-1"/>
		<path class="st1" d="M45,35.6l1-1"/>
		<path class="st1" d="M45,38.2l1-1"/>
		<path class="st1" d="M46,13.9h-1V40h1V13.9z"/>
		<path class="st1" d="M26.6,28.2h-1V40h1V28.2z"/>
		<path class="st1" d="M25.6,30.3h4.8"/>
		<path class="st1" d="M32.5,30.3h2.7"/>
		<path class="st1" d="M38.7,30.3H46"/>
		<path class="st2" d="M26.6,40c0,0,2.8,0.7,3.8,0.8v0.6c0,0-2.4-0.4-4.8-1.5H26.6z"/>
		<path class="st1" d="M32.4,41.1c0,0,1.1,0.2,2.8,0.3V42c0,0-1.9,0.1-2.8-0.3V41.1z"/>
		<path class="st3" d="M38.7,41.2c0,0,3.4-0.3,6.3-1.2h1c0,0-1.8,1.2-7.3,1.7L38.7,41.2L38.7,41.2z"/>
		<path class="st4" d="M26.6,23.6h-5.3v4.6h5.3V23.6z"/>
		<path class="st4" d="M21.3,22.2h-0.8v7.4h0.8V22.2z"/>
		<path class="st4" d="M20.5,22.2h-0.8v7.4h0.8V22.2z"/>
		<path class="st4" d="M26.6,23.6h-3.3v0.7h3.3V23.6z"/>
		<path class="st4" d="M26.6,27.5h-3.3v0.7h3.3V27.5z"/>
		<path class="st3" d="M27.9,26H16.8"/>
		<path class="st1" d="M23.3,24.3c0,0,0,0.9,0.5,1.7"/>
		<path class="st1" d="M23.3,27.7c0,0,0-0.9,0.5-1.7"/>
		<path class="st1" d="M23.9,23.6l0.6,0.7"/>
		<path class="st1" d="M25.8,23.6l0.6,0.7"/>
		<path class="st1" d="M23.9,27.5l0.6,0.7"/>
		<path class="st1" d="M25.8,27.5l0.6,0.7"/>
		<path class="st1" d="M46,39.2l0.9,0.8"/>
		<path class="st1" d="M48.1,38.9l1.3,1.2"/>
		<path class="st1" d="M50.8,38.9l1.3,1.2"/>
		<path class="st1" d="M53.5,38.9l1.3,1.2"/>
		<path class="st1" d="M56.1,38.9l1.3,1.2"/>
		<path class="st1" d="M58.7,38.9l1.3,1.2"/>
		<path class="st1" d="M61.4,38.9l1.3,1.2"/>
		<path class="st1" d="M64.1,38.9l1.3,1.2"/>
		<path class="st1" d="M66.7,38.9l1.3,1.2"/>
		<path class="st1" d="M69.3,38.9l1.3,1.2"/>
		<path class="st1" d="M71.8,38.9l1.3,1.2"/>
		<path class="st1" d="M74.5,38.9l1.3,1.2"/>
		<path class="st1" d="M77.2,38.9l1.3,1.2"/>
		<path class="st1" d="M79.8,38.9l1.3,1.2"/>
		<path class="st1" d="M82.4,38.9l1.3,1.2"/>
		<path class="st1" d="M85,38.9l1.3,1.2"/>
		<path class="st1" d="M87.6,38.9l0.9,0.9"/>
		<path class="st1" d="M89.6,20h-1V40h1V20z"/>
		<path class="st1" d="M88.5,21.6l1-1"/>
		<path class="st1" d="M88.5,24.2l1-1"/>
		<path class="st1" d="M88.5,26.7l1-1"/>
		<path class="st1" d="M88.5,29.3l1-1"/>
		<path class="st1" d="M88.5,31.8l1-1"/>
		<path class="st1" d="M88.5,34.4l1-1"/>
		<path class="st1" d="M88.5,36.9l1-1"/>
		<path class="st1" d="M88.5,39.5l1-1"/>
		<path class="st1" d="M88.5,15v5"/>
		<path class="st1" d="M98.9,13.9H83.8v1h15.1V13.9z"/>
		<path class="st1" d="M98.9,13H83.8v1h15.1V13z"/>
		<path class="st1" d="M115.5,13.9h-15.1v1h15.1V13.9z"/>
		<path class="st1" d="M115.5,13h-15.1v1h15.1V13z"/>
		<path class="st1" d="M100.4,6.5h-1.5v8.5h1.5V6.5z"/>
		<path class="st1" d="M100.1,4.8h-1v1.7h1V4.8z"/>
		<path class="st1" d="M99.6,1.7v9.2"/>
		<path class="st1" d="M99.6,12.4v1.2"/>
		<path class="st1" d="M99.6,14.9v7.2"/>
		<path class="st1" d="M98.6,17.3v-2.4"/>
		<path class="st1" d="M100.7,14.9v1.8"/>
		<path class="st1" d="M110.7,14.9V40"/>
		<path class="st1" d="M110.7,17.3h-1.1V40h1.1V17.3z"/>
		<path class="st1" d="M109.7,19l1-1"/>
		<path class="st1" d="M109.7,21.5l1-1"/>
		<path class="st1" d="M109.7,24l1-1"/>
		<path class="st1" d="M109.7,26.6l1-1"/>
		<path class="st1" d="M109.7,29.1l1-1"/>
		<path class="st1" d="M109.7,31.6l1-1"/>
		<path class="st1" d="M109.7,34.1l1-1"/>
		<path class="st1" d="M109.7,36.6l1-1"/>
		<path class="st1" d="M109.7,39.1l1-1"/>
		<path class="st1" d="M88.5,30.4h22.2"/>
		<path class="st1" d="M93.1,10.5h-0.8V13h0.8V10.5z"/>
		<path class="st1" d="M107,10.5h-0.8V13h0.8V10.5z"/>
		<path class="st1" d="M99.6,23.7v1.3"/>
		<path class="st1" d="M99.6,26.2v7.2"/>
		<path class="st1" d="M99.6,34.9v1.2"/>
		<path class="st1" d="M99.6,37.5v7"/>
		<path class="st1" d="M108.5,18.5h-2.8V19h2.8V18.5z"/>
		<path class="st1" d="M108.5,22.9h-2.8v0.5h2.8V22.9z"/>
		<path class="st1" d="M108.5,27.5h-2.8V28h2.8V27.5z"/>
		<path class="st1" d="M108.5,31.8h-2.8v0.5h2.8V31.8z"/>
		<path class="st1" d="M108.5,36.5h-2.8v0.5h2.8V36.5z"/>
		<path class="st1" d="M89.6,20h0.9c0,0,0.5-0.3,0.9-0.3c0,0,0.5-0.2,1.2-0.2c0,0,0.3-0.3,0.7-0.3c0.5,0,0.8-0.7,1.2-0.7
			s0.4-0.3,0.8-0.3c0.4,0,0.3-0.2,0.8-0.2c0.5,0,0.2-0.3,0.5-0.3s0.5-0.5,0.9-0.5c0.4,0,1.4,0,1.4,0l0.9-0.5h1l1,0.3
			c0,0,0.3,0.2,0.8,0.2s0.8-0.3,1.3-0.4c0.3-0.1,0.6,0.1,0.9,0.1c0.6,0,0.8,0,1.7,0c0.2,0,0.5-0.1,0.7-0.1c0.5,0,0.8,0.1,1.2,0.1
			c0.6,0,0.7,0,0.9,0c0.3,0.1,0.5,0.4,0.5,0.4l1.1,0.3"/>
		<path class="st1" d="M99.6,22.1c0.8,0,1.4-0.6,1.4-1.4c0-0.8-0.6-1.4-1.4-1.4c-0.8,0-1.4,0.6-1.4,1.4
			C98.2,21.5,98.8,22.1,99.6,22.1z"/>
		<path class="st1" d="M99.6,22.8c1.2,0,2.1-0.9,2.1-2.1c0-1.1-1-2.1-2.1-2.1c-1.2,0-2.1,0.9-2.1,2.1C97.5,21.8,98.5,22.8,99.6,22.8
			z"/>
		<path class="st1" d="M89.6,40c0,0,5.5,2,10.1,2c4.6,0,10-2,10-2h1.1c0,0-4.6,2.7-11.1,2.7c-6.5,0-11.1-2.6-11.1-2.6H89.6z"/>
		<path class="st1" d="M125.3,38.8h-14.5V40h14.5V38.8z"/>
		<path class="st1" d="M134.4,38.8h-6.6V40h6.6V38.8z"/>
		<path class="st1" d="M142.5,38.8h-4.4V40h4.4V38.8z"/>
		<path class="st1" d="M111.3,38.8l1.2,1.2"/>
		<path class="st1" d="M113.9,38.8l1.2,1.2"/>
		<path class="st1" d="M116.6,38.8l1.2,1.2"/>
		<path class="st1" d="M119.3,38.8l1.2,1.2"/>
		<path class="st1" d="M122,38.8l1.2,1.2"/>
		<path class="st1" d="M129.7,38.8l1.2,1.2"/>
		<path class="st1" d="M132.3,38.8l1.2,1.2"/>
		<path class="st1" d="M138.1,39.3l0.8,0.7"/>
		<path class="st1" d="M140.2,38.8l1.2,1.2"/>
		<path class="st1" d="M124.6,38.8l0.6,0.6"/>
		<path class="st1" d="M125.8,37.9h-0.6v3.5h0.6V37.9z"/>
		<path class="st1" d="M125.3,40h-0.4v4.9h0.4V40z"/>
		<path class="st1" d="M128.3,40h-0.4v4.9h0.4V40z"/>
		<path class="st1" d="M127.6,41.4h-0.4v2.3h0.4V41.4z"/>
		<path class="st1" d="M127.1,41.4h-1v3.5h1V41.4z"/>
		<path class="st1" d="M125.8,41.4h-0.4v2.3h0.4V41.4z"/>
		<path class="st1" d="M126.6,37.7h-0.7v3.8h0.7V37.7z"/>
		<path class="st1" d="M127.1,32.8h-0.9v4.9h0.9V32.8z"/>
		<path class="st1" d="M127.8,30.4h-2.6v7.4h2.6V30.4z"/>
		<path class="st1" d="M127.8,15.2h-2.6v15.1h2.6V15.2z"/>
		<path class="st1" d="M127.2,37.7h-0.6v3.8h0.6V37.7z"/>
		<path class="st1" d="M127.8,37.9h-0.7v3.5h0.7V37.9z"/>
		<path class="st1" d="M126.6,31.9v1.4"/>
		<path class="st1" d="M126.6,34.6v3.1"/>
		<path class="st1" d="M126.6,15.2v4.9"/>
		<path class="st1" d="M126.6,21.6v1.2"/>
		<path class="st1" d="M126.6,24v6.4"/>
		<path class="st1" d="M125.3,15.4l-0.5-0.5v-0.5h3.6V15l-0.5,0.5"/>
		<path class="st1" d="M127.8,32.8h1l2.3,4.8v1.3"/>
		<path class="st1" d="M125.3,32.8h-1l-2.3,4.8v1.3"/>
		<path class="st1" d="M137.4,38.4h-1.5v7h1.5V38.4z"/>
		<path class="st1" d="M136.7,46.2V35.1"/>
		<path class="st1" d="M135.9,38.8h-1.5V40c0,0-0.1,1.1,0.5,2c0.5,0.9-0.3,1.2-0.3,1.8c0,0.6,0,0.6,0,0.6s0.7,0.6,1.3,0.7
			c0.6,0.2,0.7,0.3,0.7,0.3s1.4,0.2,1.5-0.5c0.1-0.6-0.2-0.9-0.2-1.4c0-0.5,0.5-1.2,0.5-1.7c0-0.4-0.3-1-0.3-1.8c0-0.8,0-1.2,0-1.2
			h-0.7"/>
		<path class="st1" d="M24.5,38.9l1.1,1"/>
		<path class="st1" d="M21.9,38.9l1.1,1"/>
		<path class="st1" d="M19.3,38.9l1.1,1"/>
		<path class="st1" d="M8.8,38.9l1.1,1"/>
		<path class="st1" d="M11.2,38.9V40c0,0,0.3,1.4,1,2c0.7,0.6,1.1,0.8,1.5,0.9c0.5,0.1,0.4,0.1,0.8,0.1c0.4,0,1.5-0.6,1.6-1.6
			c0-1,1.6-2.6,1.6-2.6L11.2,38.9L11.2,38.9z"/>
		<path class="st1" d="M13.2,42.8v-4.2l0.3-0.2h1.2l0.2,0.2v4.5c0,0-0.3,0.1-0.8,0C13.5,42.9,13.2,42.8,13.2,42.8z"/>
		<path class="st1" d="M14,35.1v8"/>
		<path class="st1" d="M10.8,40L3.6,54.5l-1-0.5l6.9-14L10.8,40z"/>
		<path class="st1" d="M3.6,54.5v7.4l-1,0.6V54L3.6,54.5z"/>
		<path class="st1" d="M3.6,61.9l7,14.4H9.3L2.6,62.6L3.6,61.9z"/>
		<path class="st1" d="M10.6,48.9v27.4"/>
		<path class="st1" d="M10.6,40.1v3.8"/>
		<path class="st1" d="M0.4,43.9v5h11.3l2.1-5H0.4z"/>
		<path class="st1" d="M3.3,48.5H0.4v0.4h2.9V48.5z"/>
		<path class="st1" d="M3.3,43.9H0.4v0.4h2.9V43.9z"/>
		<path class="st1" d="M1.9,44.4H1.4v4.1h0.5V44.4z"/>
		<path class="st1" d="M3.3,44.4c0,0-0.2,1.4,0.4,2"/>
		<path class="st1" d="M3.3,48.4c0,0-0.2-1.4,0.4-2"/>
		<path class="st1" d="M5.1,46.4H0.4"/>
		<path class="st1" d="M8.4,46.4h4.4"/>
		<path class="st1" d="M12.8,46.4l2.5,2.6"/>
		<path class="st1" d="M11.7,48.9l1.1,1.1"/>
		<path class="st1" d="M13.9,43.9l4,4"/>
		<path class="st1" d="M17.9,47.9L12.8,50v21.9h5.2V47.9z M17.9,47.9v27.9h3.3v-1.1l-2.5-5.2l-0.9,0"/>
		<path class="st1" d="M0.1,58.3h7.2"/>
		<path class="st1" d="M8.9,58.3h1.5"/>
		<path class="st1" d="M11.6,58.3h7.6"/>
		<path class="st1" d="M20.7,58.3h1.2"/>
		<path class="st1" d="M23.5,58.3h7.2"/>
		<path class="st1" d="M32.8,58.3h0.9"/>
		<path class="st1" d="M35.6,58.3h7.5"/>
		<path class="st1" d="M44.6,58.3h1.2"/>
		<path class="st1" d="M47.4,58.3h4"/>
		<path class="st1" d="M53.9,58.3h1"/>
		<path class="st1" d="M56.5,58.3H58"/>
		<path class="st1" d="M60.1,58.3h6.6"/>
		<path class="st1" d="M68,58.3h1.3"/>
		<path class="st1" d="M71.1,58.3H78"/>
		<path class="st1" d="M80.4,58.3h1.2"/>
		<path class="st1" d="M82.9,58.3h7.8"/>
		<path class="st1" d="M92.2,58.3h1.3"/>
		<path class="st1" d="M95,58.3h7.6"/>
		<path class="st1" d="M104.1,58.3h1"/>
		<path class="st1" d="M106.9,58.3h7.7"/>
		<path class="st1" d="M116,58.3h1.4"/>
		<path class="st1" d="M118.7,58.3h7.5"/>
		<path class="st1" d="M129.8,58.3h8.6"/>
		<path class="st1" d="M139.8,58.3h1.2"/>
		<path class="st1" d="M142.8,58.3h7.3"/>
		<path class="st1" d="M15.5,71.9v-4.5"/>
		<path class="st1" d="M15.5,66.3v-1.2"/>
		<path class="st1" d="M15.5,63.7v-5.2"/>
		<path class="st1" d="M15.5,56.8v-1.2"/>
		<path class="st1" d="M15.5,54.2v-5L15.3,49"/>
		<path class="st1" d="M39.7,68.6h-5.6V69h5.6V68.6z"/>
		<path class="st1" d="M39.6,69h-5.4v0.4h5.4V69z"/>
		<path class="st1" d="M40.4,69.6h-7V70h7V69.6z"/>
		<path class="st1" d="M39.7,70h-5.6v0.8h5.6V70z"/>
		<path class="st1" d="M37.9,71.7h-2v0.5h2V71.7z"/>
		<path class="st1" d="M37.7,72.2h-1.6v0.9h1.6V72.2z"/>
		<path class="st1" d="M38.4,73.2h-3v0.8h3V73.2z"/>
		<path class="st1" d="M40.4,70.7h-7v0.5h7V70.7z"/>
		<path class="st1" d="M40.4,71.2h-7v0.5h7V71.2z"/>
		<path class="st1" d="M8.3,76.3l1.2,1.2"/>
		<path class="st1" d="M11,76.3l1.2,1.2"/>
		<path class="st1" d="M13.7,76.3l1.2,1.2"/>
		<path class="st1" d="M16.3,76.3l1.2,1.2"/>
		<path class="st1" d="M18.9,76.3l1.2,1.2"/>
		<path class="st1" d="M21.5,76.3l1.2,1.2"/>
		<path class="st1" d="M24.1,76.3l1.2,1.2"/>
		<path class="st1" d="M26.7,76.3l1.2,1.2"/>
		<path class="st1" d="M29.4,76.3l1.2,1.2"/>
		<path class="st1" d="M32,76.3l1.2,1.2"/>
		<path class="st1" d="M34.7,76.3l1.2,1.2"/>
		<path class="st1" d="M37.4,76.3l1.2,1.2"/>
		<path class="st1" d="M40,76.3l1.2,1.2"/>
		<path class="st1" d="M42.7,76.3l1.2,1.2"/>
		<path class="st1" d="M45.3,76.3l1.2,1.2"/>
		<path class="st1" d="M48,76.3l1.2,1.2"/>
		<path class="st1" d="M50.5,76.3l1.2,1.2"/>
		<path class="st1" d="M53.2,76.3l1.2,1.2"/>
		<path class="st1" d="M55.8,76.3l1.2,1.2"/>
		<path class="st1" d="M58.5,76.3l1.2,1.2"/>
		<path class="st1" d="M61.1,76.3l1.2,1.2"/>
		<path class="st1" d="M63.7,76.3l1.2,1.2"/>
		<path class="st1" d="M66.2,76.3l1.2,1.2"/>
		<path class="st1" d="M68.8,76.3l1.2,1.2"/>
		<path class="st1" d="M71.4,76.3l1.2,1.2"/>
		<path class="st1" d="M74,76.3l1.2,1.2"/>
		<path class="st1" d="M76.7,76.3l1.2,1.2"/>
		<path class="st1" d="M79.3,76.3l1.2,1.2"/>
		<path class="st1" d="M82.1,76.3l1.2,1.2"/>
		<path class="st1" d="M84.8,76.3l1.2,1.2"/>
		<path class="st1" d="M87.2,76.3l1.2,1.2"/>
		<path class="st1" d="M89.8,76.3l1.2,1.2"/>
		<path class="st1" d="M92.5,76.3l1.2,1.2"/>
		<path class="st1" d="M95.2,76.3l1.2,1.2"/>
		<path class="st1" d="M97.9,76.3l1.2,1.2"/>
		<path class="st1" d="M100.6,76.3l1.2,1.2"/>
		<path class="st1" d="M103,76.3l1.2,1.2"/>
		<path class="st1" d="M105.7,76.3l1.2,1.2"/>
		<path class="st1" d="M108.3,76.3l1.2,1.2"/>
		<path class="st1" d="M110.9,76.3l1.2,1.2"/>
		<path class="st1" d="M113.6,76.3l1.2,1.2"/>
		<path class="st1" d="M116.3,76.3l1.2,1.2"/>
		<path class="st1" d="M118.9,76.3l1.2,1.2"/>
		<path class="st1" d="M121.4,76.3l1.2,1.2"/>
		<path class="st1" d="M124,76.3l1.2,1.2"/>
		<path class="st1" d="M126.7,76.3l1.2,1.2"/>
		<path class="st1" d="M129.3,76.3l1.2,1.2"/>
		<path class="st1" d="M132,76.3l0.9,0.9"/>
		<path class="st1" d="M14.7,77.5h-1.5v1.7h1.5V77.5z"/>
		<path class="st1" d="M137.4,77.5h-1.5v1.7h1.5V77.5z"/>
		<path class="st1" d="M60.1,41.5h-2v32.8h2V41.5z"/>
		<path class="st1" d="M58.6,71.1v5.2"/>
		<path class="st1" d="M59.6,71.1v5.2"/>
		<path class="st1" d="M58.6,66.1v3.6"/>
		<path class="st1" d="M59.6,66.1v3.6"/>
		<path class="st1" d="M58.6,61.1v3.6"/>
		<path class="st1" d="M59.6,61.1v3.6"/>
		<path class="st1" d="M58.6,56.1v3.6"/>
		<path class="st1" d="M59.6,56.1v3.6"/>
		<path class="st1" d="M58.6,51.2v3.6"/>
		<path class="st1" d="M59.6,51.2v3.6"/>
		<path class="st1" d="M58.6,46.2v3.6"/>
		<path class="st1" d="M59.6,46.2v3.6"/>
		<path class="st1" d="M58.6,40v4.7"/>
		<path class="st1" d="M59.6,40v4.7"/>
		<path class="st1" d="M70.5,41.5h-2v32.8h2V41.5z"/>
		<path class="st1" d="M69,71.1v5.2"/>
		<path class="st1" d="M70,71.1v5.2"/>
		<path class="st1" d="M69,66.1v3.6"/>
		<path class="st1" d="M70,66.1v3.6"/>
		<path class="st1" d="M69,61.1v3.6"/>
		<path class="st1" d="M70,61.1v3.6"/>
		<path class="st1" d="M69,56.1v3.6"/>
		<path class="st1" d="M70,56.1v3.6"/>
		<path class="st1" d="M69,51.2v3.6"/>
		<path class="st1" d="M70,51.2v3.6"/>
		<path class="st1" d="M69,46.2v3.6"/>
		<path class="st1" d="M70,46.2v3.6"/>
		<path class="st1" d="M69,40v4.7"/>
		<path class="st1" d="M70,40v4.7"/>
		<path class="st1" d="M80,41.5h-2v32.8h2V41.5z"/>
		<path class="st1" d="M78.5,71.1v5.2"/>
		<path class="st1" d="M79.5,71.1v5.2"/>
		<path class="st1" d="M78.5,66.1v3.6"/>
		<path class="st1" d="M79.5,66.1v3.6"/>
		<path class="st1" d="M78.5,61.1v3.6"/>
		<path class="st1" d="M79.5,61.1v3.6"/>
		<path class="st1" d="M78.5,56.1v3.6"/>
		<path class="st1" d="M79.5,56.1v3.6"/>
		<path class="st1" d="M78.5,51.2v3.6"/>
		<path class="st1" d="M79.5,51.2v3.6"/>
		<path class="st1" d="M78.5,46.2v3.6"/>
		<path class="st1" d="M79.5,46.2v3.6"/>
		<path class="st1" d="M78.5,40v4.7"/>
		<path class="st1" d="M79.5,40v4.7"/>
		<path class="st1" d="M113.5,41.8l-1-0.4L97.2,75.1l1,0.4L113.5,41.8z"/>
		<path class="st1" d="M98.9,76.2l-0.9,0l1.1-2.5l0.8,0.3L98.9,76.2z"/>
		<path class="st1" d="M113.7,40c0,0-1,0.9-0.8,1.5c0.2,0.6,0.6,0,1.1,0.5c0.5,0.5,0.8-1.3-0.5-1.4"/>
		<path class="st1" d="M112.5,41.4l0.5,1.5"/>
		<path class="st1" d="M112.3,41.9l0.5,1.5"/>
		<path class="st1" d="M112,42.5l0.5,1.5"/>
		<path class="st1" d="M111.8,43.1l0.5,1.5"/>
		<path class="st1" d="M111.4,43.7l0.5,1.5"/>
		<path class="st1" d="M111.2,44.4l0.5,1.5"/>
		<path class="st1" d="M110.9,45l0.5,1.5"/>
		<path class="st1" d="M110.6,45.5l0.5,1.5"/>
		<path class="st1" d="M108.4,50.6l0.5,1.5"/>
		<path class="st1" d="M108.1,51.1l0.5,1.5"/>
		<path class="st1" d="M107.9,51.7l0.5,1.5"/>
		<path class="st1" d="M107.6,52.2l0.5,1.5"/>
		<path class="st1" d="M107.3,52.9l0.5,1.5"/>
		<path class="st1" d="M107,53.5l0.5,1.5"/>
		<path class="st1" d="M106.7,54.1l0.5,1.5"/>
		<path class="st1" d="M106.5,54.6l0.5,1.5"/>
		<path class="st1" d="M104.3,59.5l0.5,1.5"/>
		<path class="st1" d="M104,60.1l0.5,1.5"/>
		<path class="st1" d="M103.8,60.6l0.5,1.5"/>
		<path class="st1" d="M103.5,61.1l0.5,1.5"/>
		<path class="st1" d="M103.2,61.9l0.5,1.4"/>
		<path class="st1" d="M102.9,62.4l0.5,1.5"/>
		<path class="st1" d="M102.6,63.1l0.5,1.5"/>
		<path class="st1" d="M102.4,63.6l0.5,1.5"/>
		<path class="st1" d="M99.8,69.4l0.5,1.5"/>
		<path class="st1" d="M99.5,70l0.5,1.5"/>
		<path class="st1" d="M99.2,70.5l0.5,1.5"/>
		<path class="st1" d="M99,71.1l0.5,1.5"/>
		<path class="st1" d="M98.7,71.8l0.5,1.4"/>
		<path class="st1" d="M98.4,72.3l0.5,1.5"/>
		<path class="st1" d="M98.1,73l0.5,1.5"/>
		<path class="st1" d="M97.8,73.5l0.5,1.5"/>
		<path class="st1" d="M126.6,42.8V44"/>
		<path class="st1" d="M124.8,43.7h-0.8v5.7h0.8V43.7z"/>
		<path class="st1" d="M129.1,43.7h-0.8v5.7h0.8V43.7z"/>
		<path class="st1" d="M124.1,49.4V72h5V49.4h-0.8c0,0-0.5,0.7-1.1,0.7c-0.6,0-1-0.7-1.3-0.7S124.1,49.4,124.1,49.4z"/>
		<path class="st1" d="M126.6,45.3V52"/>
		<path class="st1" d="M126.6,53.5v1.2"/>
		<path class="st1" d="M126.6,55.9v6.8"/>
		<path class="st1" d="M126.6,64.1v0.9"/>
		<path class="st1" d="M126.6,66.5V72"/>
		<path class="st1" d="M129.1,76.3v-6h0.8l2.5,5v1H129.1z"/>
		<path class="st1" d="M132.9,77.5v-1.2c0,0,0.5-0.6,0.5-1c0-0.4-0.3-0.8-0.3-1.2c0-0.4,0.4-1.4,0.4-2c0-0.6-0.3-1.2-0.3-1.6
			c0-0.5,1-2.4,1.2-3.3c0.2-0.9,0.6-2.5,0.8-3.2c0.1-0.7,1.1-3.2,1.1-3.7c0-0.5,0.1-0.9,0.2-1.4c0.1-0.5,0.5-1.5,0.5-2.2
			c0-0.7,0.5-1.7,0.5-2.2c0-0.6,0.6-2,0.8-2.5c0.2-0.4,0.9-1.9,0.9-2.5c0-0.7,0-2.3,0-2.3s1.8-2,1.8-2.4c0-0.5,0.2-0.8,0.2-0.8
			l1.3-1.3v34.9H132.9z"/>
		<path class="st1" d="M142.5,72.3l4.8-9.6v-8.9L140.5,40"/>
		<path class="st1" d="M139.1,40l2.1,3.9"/>
		<path class="st1" d="M139.1,47.1V40"/>
		<path class="st1" d="M142.5,42.5V40"/>
	</g>
</g>
<rect x="47.1" y="47.2" class="st5" width="46.9" height="21.6"/>
<g>
	<g>
		<path class="st6" d="M75.3,64.2c-0.1,0-2.1,0-2.9,0c0.5-1.3,1-2.5,1.4-3.8c0.2,0.5,0.3,0.9,0.5,1.3C74.7,62.4,75.3,64.1,75.3,64.2
			z"/>
		<g>
			<path class="st7" d="M52.1,64.2c0,0,0.6-1.7,0.9-2.5c0-0.1,0.1-0.2,0.1-0.2l3.4,0l-0.2,2.7h7.8c0,0,0-4.8,0-7c0-0.1,0-0.2,0-0.3
				c0.3,0.5,0.6,1,0.8,1.5c1.1,1.9,3.4,5.8,3.4,5.8s2.8,0,4.1,0c0.5-1.3,1-2.5,1.4-3.8c0.2,0.5,0.3,0.9,0.5,1.3
				c0.3,0.8,0.9,2.4,1,2.5c0.7,0,2.8,0,2.8,0v-8.8l1.9,8.8h4.4c0,0,2.2-8.7,2.3-8.8c0,0.3,0,8.8,0,8.8h5.2V49.6h-7.5
				c0,0-1.7,7.3-1.8,7.3c-0.1-0.5-2-7.3-2-7.3H69.6l0,7.5l-4.2-7.5c0,0-2.4,0-3.4,0c-0.1,0.1-0.8,1.9-1.1,2.6
				c-0.2,0.4-0.3,0.8-0.5,1.3c-0.6-1.3-1.1-2.6-1.7-3.9c-1.4,0-4.7,0-4.7,0s-0.1,0.2-0.2,0.3c-2.3,4.6-4.6,9.2-6.9,13.8
				c0,0.1-0.1,0.3-0.2,0.4H52.1z M56.5,53.9c0,0.1,0,3.3,0,3.3s-1.2,0-1.8,0C55.3,56.1,55.9,55,56.5,53.9z"/>
		</g>
		<polygon class="st8" points="58.8,49.6 62,49.6 60.5,53.5 		"/>
	</g>
	<g>
		<path class="st6" d="M48.7,66.1H48l-0.1,0.3h-0.4l0.7-1.6h0.4l0.7,1.6h-0.4L48.7,66.1z M48.6,65.8l-0.3-0.6l-0.3,0.6H48.6z"/>
		<path class="st6" d="M51,65.1h-0.5v-0.3h1.4v0.3h-0.5v1.3H51V65.1z"/>
		<path class="st6" d="M54.2,65.8v0.6h-0.4v-0.6l-0.6-1h0.4l0.4,0.7l0.4-0.7h0.4L54.2,65.8z"/>
		<path class="st6" d="M57.4,66.4L57.1,66h0h-0.3v0.4h-0.4v-1.6h0.7c0.1,0,0.3,0,0.4,0.1c0.1,0,0.2,0.1,0.2,0.2
			c0.1,0.1,0.1,0.2,0.1,0.3c0,0.1,0,0.2-0.1,0.3c-0.1,0.1-0.1,0.2-0.2,0.2l0.4,0.5H57.4z M57.3,65.2c-0.1,0-0.1-0.1-0.3-0.1h-0.3
			v0.6h0.3c0.1,0,0.2,0,0.3-0.1c0.1,0,0.1-0.1,0.1-0.2C57.4,65.3,57.4,65.2,57.3,65.2z"/>
		<path class="st6" d="M60.5,66.1h-0.7l-0.1,0.3h-0.4l0.7-1.6h0.4l0.7,1.6h-0.4L60.5,66.1z M60.4,65.8l-0.3-0.6l-0.3,0.6H60.4z"/>
		<path class="st6" d="M62.7,66.2c-0.1-0.1-0.2-0.3-0.2-0.5v-0.9h0.4v0.9c0,0.3,0.1,0.4,0.4,0.4c0.1,0,0.2,0,0.3-0.1
			c0.1-0.1,0.1-0.2,0.1-0.3v-0.9H64v0.9c0,0.2-0.1,0.4-0.2,0.5c-0.1,0.1-0.3,0.2-0.5,0.2C63,66.4,62.8,66.4,62.7,66.2z"/>
		<path class="st6" d="M67.2,64.8v1.6h-0.3l-0.8-1v1h-0.4v-1.6H66l0.8,1v-1H67.2z"/>
		<path class="st6" d="M70.2,66.1v0.3h-1.2v-1.6h1.2v0.3h-0.8v0.3H70v0.3h-0.7v0.4H70.2z"/>
		<path class="st6" d="M72.2,65.1v0.4H73v0.3h-0.7v0.6h-0.4v-1.6h1.2v0.3H72.2z"/>
		<path class="st6" d="M75,65.1h-0.5v-0.3h1.4v0.3h-0.5v1.3H75V65.1z"/>
		<path class="st6" d="M78.7,66.1v0.3h-1.2v-1.6h1.2v0.3h-0.8v0.3h0.7v0.3h-0.7v0.4H78.7z"/>
		<path class="st6" d="M81.9,66.4l0-1l-0.5,0.8h-0.2l-0.5-0.8v0.9h-0.3v-1.6h0.3l0.6,1l0.6-1h0.3l0,1.6H81.9z"/>
		<path class="st6" d="M85,66.1h-0.7l-0.1,0.3h-0.4l0.7-1.6h0.4l0.7,1.6h-0.4L85,66.1z M84.9,65.8l-0.3-0.6l-0.3,0.6H84.9z"/>
		<path class="st6" d="M87.3,66.4c-0.1,0-0.2-0.1-0.3-0.1l0.1-0.3c0.1,0.1,0.1,0.1,0.2,0.1c0.1,0,0.2,0,0.3,0c0.1,0,0.2,0,0.2,0
			c0.1,0,0.1-0.1,0.1-0.1c0,0,0-0.1,0-0.1c0,0-0.1,0-0.1-0.1c0,0-0.1,0-0.2-0.1c-0.1,0-0.2-0.1-0.3-0.1c-0.1,0-0.1-0.1-0.2-0.1
			C87,65.5,87,65.4,87,65.3c0-0.1,0-0.2,0.1-0.3c0.1-0.1,0.1-0.1,0.2-0.2c0.1,0,0.2-0.1,0.4-0.1c0.1,0,0.2,0,0.3,0
			c0.1,0,0.2,0.1,0.3,0.1l-0.1,0.3c-0.1-0.1-0.3-0.1-0.4-0.1c-0.1,0-0.2,0-0.2,0.1c0,0-0.1,0.1-0.1,0.1c0,0.1,0,0.1,0.1,0.1
			c0.1,0,0.1,0.1,0.3,0.1c0.1,0,0.2,0.1,0.3,0.1c0.1,0,0.1,0.1,0.2,0.1c0.1,0.1,0.1,0.1,0.1,0.3c0,0.1,0,0.2-0.1,0.2
			c-0.1,0.1-0.1,0.1-0.2,0.2c-0.1,0-0.2,0.1-0.4,0.1C87.5,66.4,87.4,66.4,87.3,66.4z"/>
		<path class="st6" d="M91.4,64.8v1.6H91v-0.7h-0.7v0.7h-0.4v-1.6h0.4v0.6H91v-0.6H91.4z"/>
	</g>
</g>
</svg>
